<mxfile host="Electron" modified="2023-12-10T16:40:23.938Z" agent="Mozilla/5.0 (X11; Linux x86_64) AppleWebKit/537.36 (KHTML, like Gecko) draw.io/21.2.8 Chrome/112.0.5615.165 Electron/24.2.0 Safari/537.36" etag="Z3Sw00T9z-lKUjv8qhZx" version="21.2.8" type="device" pages="7">
  <diagram id="XL2MwWVF5h7FW3dzBwHc" name="Use-Case">
    <mxGraphModel dx="1434" dy="835" grid="1" gridSize="10" guides="1" tooltips="1" connect="1" arrows="1" fold="1" page="1" pageScale="1" pageWidth="850" pageHeight="1100" math="0" shadow="0">
      <root>
        <mxCell id="0" />
        <mxCell id="1" parent="0" />
        <mxCell id="ypK6QvRPg5p7O-yVZq4r-1" value="Customer" style="shape=umlActor;verticalLabelPosition=bottom;verticalAlign=top;html=1;" vertex="1" parent="1">
          <mxGeometry x="110" y="490" width="30" height="60" as="geometry" />
        </mxCell>
        <mxCell id="5Otl4xeU5iWGntY6309W-2" value="" style="rounded=0;whiteSpace=wrap;html=1;" vertex="1" parent="1">
          <mxGeometry x="270" y="420" width="160" height="230" as="geometry" />
        </mxCell>
        <mxCell id="5Otl4xeU5iWGntY6309W-3" value="Einzelfahrt&lt;br&gt;kaufen" style="ellipse;whiteSpace=wrap;html=1;rounded=1;strokeWidth=1;fontSize=12;fillColor=#d5e8d4;strokeColor=#82b366;" vertex="1" parent="1">
          <mxGeometry x="290" y="450" width="120" height="50" as="geometry" />
        </mxCell>
        <mxCell id="5Otl4xeU5iWGntY6309W-4" value="Streckeninformation&lt;br&gt;anzeigen" style="ellipse;whiteSpace=wrap;html=1;rounded=1;strokeWidth=1;fontSize=12;fillColor=#d5e8d4;strokeColor=#82b366;" vertex="1" parent="1">
          <mxGeometry x="290" y="510" width="120" height="50" as="geometry" />
        </mxCell>
        <mxCell id="5Otl4xeU5iWGntY6309W-5" value="Abo-Karte&lt;br&gt;kaufen" style="ellipse;whiteSpace=wrap;html=1;rounded=1;strokeWidth=1;fontSize=12;fillColor=#d5e8d4;strokeColor=#82b366;" vertex="1" parent="1">
          <mxGeometry x="290" y="570" width="120" height="50" as="geometry" />
        </mxCell>
        <mxCell id="5Otl4xeU5iWGntY6309W-6" value="Fahrkartenautomat" style="text;html=1;strokeColor=none;fillColor=none;align=center;verticalAlign=middle;whiteSpace=wrap;rounded=0;" vertex="1" parent="1">
          <mxGeometry x="320" y="380" width="60" height="30" as="geometry" />
        </mxCell>
        <mxCell id="5Otl4xeU5iWGntY6309W-7" value="" style="endArrow=none;html=1;rounded=0;exitX=1;exitY=0.3333333333333333;exitDx=0;exitDy=0;exitPerimeter=0;entryX=0;entryY=0.5;entryDx=0;entryDy=0;" edge="1" parent="1" source="ypK6QvRPg5p7O-yVZq4r-1" target="5Otl4xeU5iWGntY6309W-3">
          <mxGeometry width="50" height="50" relative="1" as="geometry">
            <mxPoint x="150" y="660" as="sourcePoint" />
            <mxPoint x="200" y="610" as="targetPoint" />
          </mxGeometry>
        </mxCell>
        <mxCell id="5Otl4xeU5iWGntY6309W-8" value="" style="endArrow=none;html=1;rounded=0;exitX=1;exitY=0.3333333333333333;exitDx=0;exitDy=0;exitPerimeter=0;entryX=0;entryY=0.5;entryDx=0;entryDy=0;" edge="1" parent="1" source="ypK6QvRPg5p7O-yVZq4r-1" target="5Otl4xeU5iWGntY6309W-4">
          <mxGeometry width="50" height="50" relative="1" as="geometry">
            <mxPoint x="150" y="520" as="sourcePoint" />
            <mxPoint x="300" y="485" as="targetPoint" />
          </mxGeometry>
        </mxCell>
        <mxCell id="5Otl4xeU5iWGntY6309W-9" value="" style="endArrow=none;html=1;rounded=0;exitX=1;exitY=0.3333333333333333;exitDx=0;exitDy=0;exitPerimeter=0;entryX=0;entryY=0.5;entryDx=0;entryDy=0;" edge="1" parent="1" source="ypK6QvRPg5p7O-yVZq4r-1" target="5Otl4xeU5iWGntY6309W-5">
          <mxGeometry width="50" height="50" relative="1" as="geometry">
            <mxPoint x="160" y="530" as="sourcePoint" />
            <mxPoint x="310" y="495" as="targetPoint" />
          </mxGeometry>
        </mxCell>
        <mxCell id="5Otl4xeU5iWGntY6309W-10" value="" style="rounded=0;whiteSpace=wrap;html=1;container=1;" vertex="1" parent="1">
          <mxGeometry x="810" y="230" width="1300" height="670" as="geometry">
            <mxRectangle x="810" y="230" width="50" height="40" as="alternateBounds" />
          </mxGeometry>
        </mxCell>
        <mxCell id="5Otl4xeU5iWGntY6309W-167" value="Customer" style="shape=umlActor;verticalLabelPosition=bottom;verticalAlign=top;html=1;fontFamily=Helvetica;fontSize=12;align=center;strokeColor=#82b366;strokeWidth=1;fillColor=#d5e8d4;" vertex="1" parent="5Otl4xeU5iWGntY6309W-10">
          <mxGeometry x="90" y="325" width="30" height="60" as="geometry" />
        </mxCell>
        <mxCell id="5Otl4xeU5iWGntY6309W-170" value="Update account details" style="ellipse;whiteSpace=wrap;html=1;rounded=1;strokeWidth=1;fontSize=12;fillColor=#d5e8d4;strokeColor=#82b366;" vertex="1" parent="5Otl4xeU5iWGntY6309W-10">
          <mxGeometry x="200" y="305" width="120" height="50" as="geometry" />
        </mxCell>
        <mxCell id="5Otl4xeU5iWGntY6309W-171" style="edgeStyle=none;rounded=0;jumpStyle=arc;orthogonalLoop=1;jettySize=auto;html=1;dashed=1;dashPattern=1 4;fontSize=12;fontColor=#000000;" edge="1" parent="5Otl4xeU5iWGntY6309W-10" source="5Otl4xeU5iWGntY6309W-175" target="5Otl4xeU5iWGntY6309W-170">
          <mxGeometry relative="1" as="geometry" />
        </mxCell>
        <mxCell id="5Otl4xeU5iWGntY6309W-172" value="extends" style="edgeLabel;html=1;align=center;verticalAlign=middle;resizable=0;points=[];" vertex="1" connectable="0" parent="5Otl4xeU5iWGntY6309W-171">
          <mxGeometry x="0.1968" y="1" relative="1" as="geometry">
            <mxPoint x="18.81" y="-7.78" as="offset" />
          </mxGeometry>
        </mxCell>
        <mxCell id="5Otl4xeU5iWGntY6309W-175" value="Add delivery address" style="ellipse;whiteSpace=wrap;html=1;rounded=1;strokeWidth=1;fontSize=12;fillColor=#d5e8d4;strokeColor=#82b366;" vertex="1" parent="5Otl4xeU5iWGntY6309W-10">
          <mxGeometry x="400" y="265" width="120" height="50" as="geometry" />
        </mxCell>
        <mxCell id="5Otl4xeU5iWGntY6309W-176" style="edgeStyle=none;rounded=0;jumpStyle=arc;orthogonalLoop=1;jettySize=auto;html=1;dashed=1;dashPattern=1 4;fontSize=12;fontColor=#000000;" edge="1" parent="5Otl4xeU5iWGntY6309W-10" source="5Otl4xeU5iWGntY6309W-178" target="5Otl4xeU5iWGntY6309W-175">
          <mxGeometry relative="1" as="geometry" />
        </mxCell>
        <mxCell id="5Otl4xeU5iWGntY6309W-177" value="extends" style="edgeLabel;html=1;align=center;verticalAlign=middle;resizable=0;points=[];" vertex="1" connectable="0" parent="5Otl4xeU5iWGntY6309W-176">
          <mxGeometry x="0.1401" relative="1" as="geometry">
            <mxPoint as="offset" />
          </mxGeometry>
        </mxCell>
        <mxCell id="5Otl4xeU5iWGntY6309W-178" value="Update delivery address" style="ellipse;whiteSpace=wrap;html=1;rounded=1;strokeWidth=1;fontSize=12;fillColor=#d5e8d4;strokeColor=#82b366;" vertex="1" parent="5Otl4xeU5iWGntY6309W-10">
          <mxGeometry x="530" y="330" width="120" height="50" as="geometry" />
        </mxCell>
        <mxCell id="5Otl4xeU5iWGntY6309W-179" style="edgeStyle=none;rounded=0;jumpStyle=arc;orthogonalLoop=1;jettySize=auto;html=1;dashed=1;dashPattern=1 4;fontSize=12;fontColor=#000000;" edge="1" parent="5Otl4xeU5iWGntY6309W-10" source="5Otl4xeU5iWGntY6309W-181" target="5Otl4xeU5iWGntY6309W-178">
          <mxGeometry relative="1" as="geometry" />
        </mxCell>
        <mxCell id="5Otl4xeU5iWGntY6309W-180" value="extends" style="edgeLabel;html=1;align=center;verticalAlign=middle;resizable=0;points=[];" vertex="1" connectable="0" parent="5Otl4xeU5iWGntY6309W-179">
          <mxGeometry x="-0.0124" relative="1" as="geometry">
            <mxPoint as="offset" />
          </mxGeometry>
        </mxCell>
        <mxCell id="5Otl4xeU5iWGntY6309W-181" value="Delete delivery address" style="ellipse;whiteSpace=wrap;html=1;rounded=1;strokeWidth=1;fontSize=12;fillColor=#d5e8d4;strokeColor=#82b366;" vertex="1" parent="5Otl4xeU5iWGntY6309W-10">
          <mxGeometry x="670" y="385" width="120" height="50" as="geometry" />
        </mxCell>
        <mxCell id="5Otl4xeU5iWGntY6309W-182" style="rounded=0;jumpStyle=arc;orthogonalLoop=1;jettySize=auto;html=1;fontSize=12;fontColor=#000000;dashed=1;dashPattern=1 4;" edge="1" parent="5Otl4xeU5iWGntY6309W-10" source="5Otl4xeU5iWGntY6309W-184" target="5Otl4xeU5iWGntY6309W-170">
          <mxGeometry relative="1" as="geometry" />
        </mxCell>
        <mxCell id="5Otl4xeU5iWGntY6309W-183" value="extends" style="edgeLabel;html=1;align=center;verticalAlign=middle;resizable=0;points=[];" vertex="1" connectable="0" parent="5Otl4xeU5iWGntY6309W-182">
          <mxGeometry x="-0.4243" relative="1" as="geometry">
            <mxPoint y="-1" as="offset" />
          </mxGeometry>
        </mxCell>
        <mxCell id="5Otl4xeU5iWGntY6309W-184" value="Add payment method" style="ellipse;whiteSpace=wrap;html=1;rounded=1;strokeWidth=1;fontSize=12;fillColor=#d5e8d4;strokeColor=#82b366;" vertex="1" parent="5Otl4xeU5iWGntY6309W-10">
          <mxGeometry x="380" y="380" width="120" height="50" as="geometry" />
        </mxCell>
        <mxCell id="5Otl4xeU5iWGntY6309W-185" style="edgeStyle=none;rounded=0;orthogonalLoop=1;jettySize=auto;html=1;fontSize=12;fontColor=#000000;dashed=1;dashPattern=1 4;startArrow=classic;startFill=1;endArrow=none;endFill=0;" edge="1" parent="5Otl4xeU5iWGntY6309W-10" source="5Otl4xeU5iWGntY6309W-189" target="5Otl4xeU5iWGntY6309W-184">
          <mxGeometry relative="1" as="geometry" />
        </mxCell>
        <mxCell id="5Otl4xeU5iWGntY6309W-186" value="precedes" style="edgeLabel;html=1;align=center;verticalAlign=middle;resizable=0;points=[];" vertex="1" connectable="0" parent="5Otl4xeU5iWGntY6309W-185">
          <mxGeometry x="-0.135" y="-2" relative="1" as="geometry">
            <mxPoint as="offset" />
          </mxGeometry>
        </mxCell>
        <mxCell id="5Otl4xeU5iWGntY6309W-189" value="Enter payment details" style="ellipse;whiteSpace=wrap;html=1;rounded=1;strokeWidth=1;fontSize=12;fillColor=#d5e8d4;strokeColor=#82b366;" vertex="1" parent="5Otl4xeU5iWGntY6309W-10">
          <mxGeometry x="510" y="447" width="120" height="50" as="geometry" />
        </mxCell>
        <mxCell id="5Otl4xeU5iWGntY6309W-190" value="Verify credit card details" style="ellipse;whiteSpace=wrap;html=1;rounded=1;strokeWidth=1;fontSize=12;fillColor=#dae8fc;strokeColor=#6c8ebf;" vertex="1" parent="5Otl4xeU5iWGntY6309W-10">
          <mxGeometry x="810" y="430" width="120" height="50" as="geometry" />
        </mxCell>
        <mxCell id="5Otl4xeU5iWGntY6309W-187" style="edgeStyle=none;rounded=0;jumpStyle=arc;orthogonalLoop=1;jettySize=auto;html=1;dashed=1;dashPattern=1 4;fontSize=12;fontColor=#000000;" edge="1" parent="5Otl4xeU5iWGntY6309W-10" source="5Otl4xeU5iWGntY6309W-189" target="5Otl4xeU5iWGntY6309W-190">
          <mxGeometry relative="1" as="geometry" />
        </mxCell>
        <mxCell id="5Otl4xeU5iWGntY6309W-188" value="precedes" style="edgeLabel;html=1;align=center;verticalAlign=middle;resizable=0;points=[];fontSize=12;" vertex="1" connectable="0" parent="5Otl4xeU5iWGntY6309W-187">
          <mxGeometry x="-0.6637" y="-1" relative="1" as="geometry">
            <mxPoint as="offset" />
          </mxGeometry>
        </mxCell>
        <mxCell id="5Otl4xeU5iWGntY6309W-191" style="edgeStyle=none;rounded=0;jumpStyle=arc;orthogonalLoop=1;jettySize=auto;html=1;dashed=1;dashPattern=1 4;fontSize=12;fontColor=#000000;" edge="1" parent="5Otl4xeU5iWGntY6309W-10" source="5Otl4xeU5iWGntY6309W-195" target="5Otl4xeU5iWGntY6309W-170">
          <mxGeometry relative="1" as="geometry" />
        </mxCell>
        <mxCell id="5Otl4xeU5iWGntY6309W-192" value="extends" style="edgeLabel;html=1;align=center;verticalAlign=middle;resizable=0;points=[];" vertex="1" connectable="0" parent="5Otl4xeU5iWGntY6309W-191">
          <mxGeometry x="-0.3113" relative="1" as="geometry">
            <mxPoint x="1" as="offset" />
          </mxGeometry>
        </mxCell>
        <mxCell id="5Otl4xeU5iWGntY6309W-195" value="Change email address (username)" style="ellipse;whiteSpace=wrap;html=1;rounded=1;strokeWidth=1;fontSize=12;fillColor=#d5e8d4;strokeColor=#82b366;" vertex="1" parent="5Otl4xeU5iWGntY6309W-10">
          <mxGeometry x="400" y="165" width="120" height="50" as="geometry" />
        </mxCell>
        <mxCell id="5Otl4xeU5iWGntY6309W-198" value="Verify email is unique" style="ellipse;whiteSpace=wrap;html=1;rounded=1;strokeWidth=1;fontSize=12;fillColor=#dae8fc;strokeColor=#6c8ebf;" vertex="1" parent="5Otl4xeU5iWGntY6309W-10">
          <mxGeometry x="800" y="175" width="120" height="50" as="geometry" />
        </mxCell>
        <mxCell id="5Otl4xeU5iWGntY6309W-193" style="edgeStyle=none;rounded=0;jumpStyle=arc;orthogonalLoop=1;jettySize=auto;html=1;dashed=1;dashPattern=1 4;fontSize=12;fontColor=#000000;" edge="1" parent="5Otl4xeU5iWGntY6309W-10" source="5Otl4xeU5iWGntY6309W-195" target="5Otl4xeU5iWGntY6309W-198">
          <mxGeometry relative="1" as="geometry" />
        </mxCell>
        <mxCell id="5Otl4xeU5iWGntY6309W-194" value="precedes" style="edgeLabel;html=1;align=center;verticalAlign=middle;resizable=0;points=[];fontSize=12;" vertex="1" connectable="0" parent="5Otl4xeU5iWGntY6309W-193">
          <mxGeometry x="-0.7135" y="-2" relative="1" as="geometry">
            <mxPoint as="offset" />
          </mxGeometry>
        </mxCell>
        <mxCell id="5Otl4xeU5iWGntY6309W-199" value="Send confirmation link via email" style="ellipse;whiteSpace=wrap;html=1;rounded=1;strokeWidth=1;fontSize=12;fillColor=#dae8fc;strokeColor=#6c8ebf;" vertex="1" parent="5Otl4xeU5iWGntY6309W-10">
          <mxGeometry x="810" y="95" width="120" height="50" as="geometry" />
        </mxCell>
        <mxCell id="5Otl4xeU5iWGntY6309W-196" style="edgeStyle=none;rounded=0;jumpStyle=arc;orthogonalLoop=1;jettySize=auto;html=1;dashed=1;dashPattern=1 4;startArrow=none;startFill=0;endArrow=classic;endFill=1;fontSize=12;fontColor=#000000;" edge="1" parent="5Otl4xeU5iWGntY6309W-10" source="5Otl4xeU5iWGntY6309W-198" target="5Otl4xeU5iWGntY6309W-199">
          <mxGeometry relative="1" as="geometry" />
        </mxCell>
        <mxCell id="5Otl4xeU5iWGntY6309W-197" value="precedes" style="edgeLabel;html=1;align=center;verticalAlign=middle;resizable=0;points=[];fontSize=12;" vertex="1" connectable="0" parent="5Otl4xeU5iWGntY6309W-196">
          <mxGeometry x="-0.0258" y="3" relative="1" as="geometry">
            <mxPoint as="offset" />
          </mxGeometry>
        </mxCell>
        <mxCell id="5Otl4xeU5iWGntY6309W-200" value="Customer database" style="shape=cylinder3;whiteSpace=wrap;html=1;boundedLbl=1;backgroundOutline=1;size=15;rounded=1;strokeWidth=1;fillColor=#dae8fc;strokeColor=#6c8ebf;" vertex="1" parent="5Otl4xeU5iWGntY6309W-10">
          <mxGeometry x="1065" y="190" width="60" height="80" as="geometry" />
        </mxCell>
        <mxCell id="5Otl4xeU5iWGntY6309W-201" style="edgeStyle=none;rounded=0;orthogonalLoop=1;jettySize=auto;html=1;exitX=0;exitY=1;exitDx=0;exitDy=-15;exitPerimeter=0;dashed=1;dashPattern=1 4;fontSize=12;fontColor=#000000;" edge="1" parent="5Otl4xeU5iWGntY6309W-10" source="5Otl4xeU5iWGntY6309W-200" target="5Otl4xeU5iWGntY6309W-200">
          <mxGeometry relative="1" as="geometry" />
        </mxCell>
        <mxCell id="5Otl4xeU5iWGntY6309W-202" value="System" style="shape=umlActor;verticalLabelPosition=bottom;verticalAlign=top;html=1;outlineConnect=0;rounded=1;strokeWidth=1;fillColor=#dae8fc;strokeColor=#6c8ebf;" vertex="1" parent="5Otl4xeU5iWGntY6309W-10">
          <mxGeometry x="1015" y="300" width="30" height="60" as="geometry" />
        </mxCell>
        <mxCell id="5Otl4xeU5iWGntY6309W-203" style="edgeStyle=none;rounded=0;orthogonalLoop=1;jettySize=auto;html=1;dashed=1;dashPattern=1 4;fontSize=12;fontColor=#000000;" edge="1" parent="5Otl4xeU5iWGntY6309W-10" source="5Otl4xeU5iWGntY6309W-207" target="5Otl4xeU5iWGntY6309W-170">
          <mxGeometry relative="1" as="geometry" />
        </mxCell>
        <mxCell id="5Otl4xeU5iWGntY6309W-204" value="includes" style="edgeLabel;html=1;align=center;verticalAlign=middle;resizable=0;points=[];" vertex="1" connectable="0" parent="5Otl4xeU5iWGntY6309W-203">
          <mxGeometry x="-0.2399" y="1" relative="1" as="geometry">
            <mxPoint x="-1" y="-9" as="offset" />
          </mxGeometry>
        </mxCell>
        <mxCell id="5Otl4xeU5iWGntY6309W-205" style="edgeStyle=none;rounded=0;jumpStyle=arc;orthogonalLoop=1;jettySize=auto;html=1;dashed=1;dashPattern=1 4;fontSize=12;fontColor=#000000;" edge="1" parent="5Otl4xeU5iWGntY6309W-10" source="5Otl4xeU5iWGntY6309W-207" target="5Otl4xeU5iWGntY6309W-195">
          <mxGeometry relative="1" as="geometry" />
        </mxCell>
        <mxCell id="5Otl4xeU5iWGntY6309W-206" value="includes" style="edgeLabel;html=1;align=center;verticalAlign=middle;resizable=0;points=[];fontSize=12;" vertex="1" connectable="0" parent="5Otl4xeU5iWGntY6309W-205">
          <mxGeometry x="-0.4653" y="2" relative="1" as="geometry">
            <mxPoint x="15.21" as="offset" />
          </mxGeometry>
        </mxCell>
        <mxCell id="5Otl4xeU5iWGntY6309W-207" value="Register" style="ellipse;whiteSpace=wrap;html=1;rounded=1;strokeWidth=1;fontSize=12;fillColor=#d5e8d4;strokeColor=#82b366;" vertex="1" parent="5Otl4xeU5iWGntY6309W-10">
          <mxGeometry x="200" y="205" width="120" height="50" as="geometry" />
        </mxCell>
        <mxCell id="5Otl4xeU5iWGntY6309W-212" style="edgeStyle=none;rounded=0;jumpStyle=arc;orthogonalLoop=1;jettySize=auto;html=1;dashed=1;dashPattern=1 4;startArrow=none;startFill=0;endArrow=classic;endFill=1;fontSize=12;fontColor=#000000;" edge="1" parent="5Otl4xeU5iWGntY6309W-10" source="5Otl4xeU5iWGntY6309W-214" target="5Otl4xeU5iWGntY6309W-170">
          <mxGeometry relative="1" as="geometry">
            <Array as="points">
              <mxPoint x="360" y="481" />
              <mxPoint x="350" y="415" />
              <mxPoint x="270" y="365" />
            </Array>
          </mxGeometry>
        </mxCell>
        <mxCell id="5Otl4xeU5iWGntY6309W-213" value="precedes" style="edgeLabel;html=1;align=center;verticalAlign=middle;resizable=0;points=[];fontSize=12;" vertex="1" connectable="0" parent="5Otl4xeU5iWGntY6309W-212">
          <mxGeometry x="-0.6434" y="-1" relative="1" as="geometry">
            <mxPoint as="offset" />
          </mxGeometry>
        </mxCell>
        <mxCell id="5Otl4xeU5iWGntY6309W-214" value="Login" style="ellipse;whiteSpace=wrap;html=1;rounded=1;strokeWidth=1;fontSize=12;fillColor=#d5e8d4;strokeColor=#82b366;" vertex="1" parent="5Otl4xeU5iWGntY6309W-10">
          <mxGeometry x="220" y="480" width="120" height="50" as="geometry" />
        </mxCell>
        <mxCell id="5Otl4xeU5iWGntY6309W-215" value="View account" style="ellipse;whiteSpace=wrap;html=1;rounded=1;strokeWidth=1;fontSize=12;fillColor=#d5e8d4;strokeColor=#82b366;" vertex="1" parent="5Otl4xeU5iWGntY6309W-10">
          <mxGeometry x="210" y="390" width="120" height="50" as="geometry" />
        </mxCell>
        <mxCell id="5Otl4xeU5iWGntY6309W-216" style="edgeStyle=none;rounded=0;jumpStyle=arc;orthogonalLoop=1;jettySize=auto;html=1;dashed=1;dashPattern=1 4;fontSize=12;fontColor=#000000;startArrow=classic;startFill=1;endArrow=none;endFill=0;" edge="1" parent="5Otl4xeU5iWGntY6309W-10" source="5Otl4xeU5iWGntY6309W-218" target="5Otl4xeU5iWGntY6309W-199">
          <mxGeometry relative="1" as="geometry" />
        </mxCell>
        <mxCell id="5Otl4xeU5iWGntY6309W-217" value="precedes" style="edgeLabel;html=1;align=center;verticalAlign=middle;resizable=0;points=[];fontSize=12;" vertex="1" connectable="0" parent="5Otl4xeU5iWGntY6309W-216">
          <mxGeometry x="-0.7776" relative="1" as="geometry">
            <mxPoint as="offset" />
          </mxGeometry>
        </mxCell>
        <mxCell id="5Otl4xeU5iWGntY6309W-218" value="Confirm email address" style="ellipse;whiteSpace=wrap;html=1;rounded=1;strokeWidth=1;fontSize=12;fillColor=#d5e8d4;strokeColor=#82b366;" vertex="1" parent="5Otl4xeU5iWGntY6309W-10">
          <mxGeometry x="240" y="105" width="120" height="50" as="geometry" />
        </mxCell>
        <mxCell id="5Otl4xeU5iWGntY6309W-219" value="Third-party payment &lt;br&gt;verification service" style="shape=umlActor;verticalLabelPosition=bottom;verticalAlign=top;html=1;outlineConnect=0;rounded=1;strokeWidth=1;fillColor=#f8cecc;strokeColor=#b85450;" vertex="1" parent="5Otl4xeU5iWGntY6309W-10">
          <mxGeometry x="1015" y="425" width="30" height="60" as="geometry" />
        </mxCell>
        <mxCell id="5Otl4xeU5iWGntY6309W-220" style="edgeStyle=none;rounded=0;jumpStyle=arc;orthogonalLoop=1;jettySize=auto;html=1;fontSize=12;fontColor=#000000;dashed=1;dashPattern=1 4;" edge="1" parent="5Otl4xeU5iWGntY6309W-10" source="5Otl4xeU5iWGntY6309W-198" target="5Otl4xeU5iWGntY6309W-224">
          <mxGeometry relative="1" as="geometry" />
        </mxCell>
        <mxCell id="5Otl4xeU5iWGntY6309W-221" value="includes" style="edgeLabel;html=1;align=center;verticalAlign=middle;resizable=0;points=[];" vertex="1" connectable="0" parent="5Otl4xeU5iWGntY6309W-220">
          <mxGeometry x="-0.1916" y="1" relative="1" as="geometry">
            <mxPoint x="-1" as="offset" />
          </mxGeometry>
        </mxCell>
        <mxCell id="5Otl4xeU5iWGntY6309W-222" value="Verify valid address" style="ellipse;whiteSpace=wrap;html=1;rounded=1;strokeWidth=1;fontSize=12;fillColor=#dae8fc;strokeColor=#6c8ebf;" vertex="1" parent="5Otl4xeU5iWGntY6309W-10">
          <mxGeometry x="830" y="345" width="120" height="50" as="geometry" />
        </mxCell>
        <mxCell id="5Otl4xeU5iWGntY6309W-223" value="MAP API" style="shape=umlActor;verticalLabelPosition=bottom;verticalAlign=top;html=1;outlineConnect=0;rounded=1;strokeWidth=1;fillColor=#f8cecc;strokeColor=#b85450;" vertex="1" parent="5Otl4xeU5iWGntY6309W-10">
          <mxGeometry x="1080" y="385" width="30" height="60" as="geometry" />
        </mxCell>
        <mxCell id="5Otl4xeU5iWGntY6309W-224" value="Check for existing account" style="ellipse;whiteSpace=wrap;html=1;rounded=1;strokeWidth=1;fontSize=12;fillColor=#dae8fc;strokeColor=#6c8ebf;" vertex="1" parent="5Otl4xeU5iWGntY6309W-10">
          <mxGeometry x="800" y="255" width="120" height="50" as="geometry" />
        </mxCell>
        <mxCell id="5Otl4xeU5iWGntY6309W-225" value="Update customer database" style="ellipse;whiteSpace=wrap;html=1;rounded=1;strokeWidth=1;fontSize=12;fillColor=#dae8fc;strokeColor=#6c8ebf;" vertex="1" parent="5Otl4xeU5iWGntY6309W-10">
          <mxGeometry x="870" y="35" width="120" height="50" as="geometry" />
        </mxCell>
        <mxCell id="5Otl4xeU5iWGntY6309W-226" style="edgeStyle=none;rounded=0;orthogonalLoop=1;jettySize=auto;html=1;fontSize=12;fontColor=#000000;" edge="1" parent="5Otl4xeU5iWGntY6309W-10" source="5Otl4xeU5iWGntY6309W-167" target="5Otl4xeU5iWGntY6309W-170">
          <mxGeometry relative="1" as="geometry" />
        </mxCell>
        <mxCell id="5Otl4xeU5iWGntY6309W-227" style="edgeStyle=none;rounded=0;orthogonalLoop=1;jettySize=auto;html=1;fontSize=12;fontColor=#000000;" edge="1" parent="5Otl4xeU5iWGntY6309W-10" source="5Otl4xeU5iWGntY6309W-167" target="5Otl4xeU5iWGntY6309W-215">
          <mxGeometry relative="1" as="geometry" />
        </mxCell>
        <mxCell id="5Otl4xeU5iWGntY6309W-228" style="edgeStyle=none;rounded=0;orthogonalLoop=1;jettySize=auto;html=1;fontSize=12;fontColor=#000000;" edge="1" parent="5Otl4xeU5iWGntY6309W-10" source="5Otl4xeU5iWGntY6309W-167" target="5Otl4xeU5iWGntY6309W-214">
          <mxGeometry relative="1" as="geometry" />
        </mxCell>
        <mxCell id="5Otl4xeU5iWGntY6309W-229" style="edgeStyle=none;rounded=0;orthogonalLoop=1;jettySize=auto;html=1;fontSize=12;fontColor=#000000;" edge="1" parent="5Otl4xeU5iWGntY6309W-10" source="5Otl4xeU5iWGntY6309W-167" target="5Otl4xeU5iWGntY6309W-207">
          <mxGeometry relative="1" as="geometry" />
        </mxCell>
        <mxCell id="5Otl4xeU5iWGntY6309W-230" style="edgeStyle=none;rounded=0;jumpStyle=arc;orthogonalLoop=1;jettySize=auto;html=1;fontSize=12;fontColor=#000000;" edge="1" parent="5Otl4xeU5iWGntY6309W-10" source="5Otl4xeU5iWGntY6309W-167" target="5Otl4xeU5iWGntY6309W-218">
          <mxGeometry relative="1" as="geometry">
            <Array as="points">
              <mxPoint x="200" y="205" />
            </Array>
          </mxGeometry>
        </mxCell>
        <mxCell id="5Otl4xeU5iWGntY6309W-231" style="edgeStyle=none;rounded=0;jumpStyle=arc;orthogonalLoop=1;jettySize=auto;html=1;fontSize=12;fontColor=#000000;" edge="1" parent="5Otl4xeU5iWGntY6309W-10" source="5Otl4xeU5iWGntY6309W-170" target="5Otl4xeU5iWGntY6309W-202">
          <mxGeometry relative="1" as="geometry">
            <Array as="points">
              <mxPoint x="510" y="525" />
              <mxPoint x="1130" y="525" />
              <mxPoint x="1170" y="395" />
            </Array>
          </mxGeometry>
        </mxCell>
        <mxCell id="5Otl4xeU5iWGntY6309W-232" style="edgeStyle=none;rounded=0;orthogonalLoop=1;jettySize=auto;html=1;fontSize=12;fontColor=#000000;" edge="1" parent="5Otl4xeU5iWGntY6309W-10" source="5Otl4xeU5iWGntY6309W-190" target="5Otl4xeU5iWGntY6309W-219">
          <mxGeometry relative="1" as="geometry" />
        </mxCell>
        <mxCell id="5Otl4xeU5iWGntY6309W-233" style="edgeStyle=none;rounded=0;jumpStyle=arc;orthogonalLoop=1;jettySize=auto;html=1;fontSize=12;fontColor=#000000;" edge="1" parent="5Otl4xeU5iWGntY6309W-10" source="5Otl4xeU5iWGntY6309W-199" target="5Otl4xeU5iWGntY6309W-167">
          <mxGeometry relative="1" as="geometry">
            <Array as="points">
              <mxPoint x="250" y="85" />
              <mxPoint x="170" y="205" />
            </Array>
          </mxGeometry>
        </mxCell>
        <mxCell id="5Otl4xeU5iWGntY6309W-234" style="edgeStyle=none;rounded=0;orthogonalLoop=1;jettySize=auto;html=1;fontSize=12;fontColor=#000000;" edge="1" parent="5Otl4xeU5iWGntY6309W-10" source="5Otl4xeU5iWGntY6309W-202" target="5Otl4xeU5iWGntY6309W-190">
          <mxGeometry relative="1" as="geometry" />
        </mxCell>
        <mxCell id="5Otl4xeU5iWGntY6309W-235" style="edgeStyle=none;rounded=0;orthogonalLoop=1;jettySize=auto;html=1;fontSize=12;fontColor=#000000;" edge="1" parent="5Otl4xeU5iWGntY6309W-10" source="5Otl4xeU5iWGntY6309W-202" target="5Otl4xeU5iWGntY6309W-198">
          <mxGeometry relative="1" as="geometry" />
        </mxCell>
        <mxCell id="5Otl4xeU5iWGntY6309W-210" style="edgeStyle=none;rounded=0;jumpStyle=arc;orthogonalLoop=1;jettySize=auto;html=1;dashed=1;dashPattern=1 4;startArrow=none;startFill=0;endArrow=classic;endFill=1;fontSize=12;fontColor=#000000;" edge="1" parent="5Otl4xeU5iWGntY6309W-10" source="5Otl4xeU5iWGntY6309W-214" target="5Otl4xeU5iWGntY6309W-215">
          <mxGeometry relative="1" as="geometry" />
        </mxCell>
        <mxCell id="5Otl4xeU5iWGntY6309W-211" value="precedes" style="edgeLabel;html=1;align=center;verticalAlign=middle;resizable=0;points=[];fontSize=12;" vertex="1" connectable="0" parent="5Otl4xeU5iWGntY6309W-210">
          <mxGeometry x="0.0983" y="1" relative="1" as="geometry">
            <mxPoint as="offset" />
          </mxGeometry>
        </mxCell>
        <mxCell id="5Otl4xeU5iWGntY6309W-236" style="edgeStyle=none;rounded=0;orthogonalLoop=1;jettySize=auto;html=1;fontSize=12;fontColor=#000000;" edge="1" parent="5Otl4xeU5iWGntY6309W-10" source="5Otl4xeU5iWGntY6309W-202" target="5Otl4xeU5iWGntY6309W-200">
          <mxGeometry relative="1" as="geometry" />
        </mxCell>
        <mxCell id="5Otl4xeU5iWGntY6309W-237" style="edgeStyle=none;rounded=0;orthogonalLoop=1;jettySize=auto;html=1;fontSize=12;fontColor=#000000;" edge="1" parent="5Otl4xeU5iWGntY6309W-10" source="5Otl4xeU5iWGntY6309W-202" target="5Otl4xeU5iWGntY6309W-199">
          <mxGeometry relative="1" as="geometry" />
        </mxCell>
        <mxCell id="5Otl4xeU5iWGntY6309W-173" style="edgeStyle=none;rounded=0;jumpStyle=arc;orthogonalLoop=1;jettySize=auto;html=1;dashed=1;dashPattern=1 4;fontSize=12;fontColor=#000000;" edge="1" parent="5Otl4xeU5iWGntY6309W-10" source="5Otl4xeU5iWGntY6309W-175" target="5Otl4xeU5iWGntY6309W-222">
          <mxGeometry relative="1" as="geometry">
            <Array as="points">
              <mxPoint x="600" y="290" />
            </Array>
          </mxGeometry>
        </mxCell>
        <mxCell id="5Otl4xeU5iWGntY6309W-174" value="precedes" style="edgeLabel;html=1;align=center;verticalAlign=middle;resizable=0;points=[];fontSize=12;" vertex="1" connectable="0" parent="5Otl4xeU5iWGntY6309W-173">
          <mxGeometry x="0.2226" y="2" relative="1" as="geometry">
            <mxPoint x="-150.88" y="-29.6" as="offset" />
          </mxGeometry>
        </mxCell>
        <mxCell id="5Otl4xeU5iWGntY6309W-238" style="edgeStyle=none;rounded=0;orthogonalLoop=1;jettySize=auto;html=1;fontSize=12;fontColor=#000000;" edge="1" parent="5Otl4xeU5iWGntY6309W-10" source="5Otl4xeU5iWGntY6309W-202" target="5Otl4xeU5iWGntY6309W-222">
          <mxGeometry relative="1" as="geometry" />
        </mxCell>
        <mxCell id="5Otl4xeU5iWGntY6309W-239" style="edgeStyle=none;rounded=0;jumpStyle=arc;orthogonalLoop=1;jettySize=auto;html=1;fontSize=12;fontColor=#000000;" edge="1" parent="5Otl4xeU5iWGntY6309W-10" source="5Otl4xeU5iWGntY6309W-202" target="5Otl4xeU5iWGntY6309W-224">
          <mxGeometry relative="1" as="geometry" />
        </mxCell>
        <mxCell id="5Otl4xeU5iWGntY6309W-240" style="edgeStyle=none;rounded=0;jumpStyle=arc;orthogonalLoop=1;jettySize=auto;html=1;fontSize=12;fontColor=#000000;" edge="1" parent="5Otl4xeU5iWGntY6309W-10" source="5Otl4xeU5iWGntY6309W-202" target="5Otl4xeU5iWGntY6309W-225">
          <mxGeometry relative="1" as="geometry" />
        </mxCell>
        <mxCell id="5Otl4xeU5iWGntY6309W-241" style="edgeStyle=none;rounded=0;jumpStyle=arc;orthogonalLoop=1;jettySize=auto;html=1;fontSize=12;fontColor=#000000;" edge="1" parent="5Otl4xeU5iWGntY6309W-10" source="5Otl4xeU5iWGntY6309W-214" target="5Otl4xeU5iWGntY6309W-202">
          <mxGeometry relative="1" as="geometry">
            <Array as="points">
              <mxPoint x="410" y="545" />
              <mxPoint x="1150" y="545" />
              <mxPoint x="1190" y="375" />
              <mxPoint x="1080" y="305" />
            </Array>
          </mxGeometry>
        </mxCell>
        <mxCell id="5Otl4xeU5iWGntY6309W-208" style="edgeStyle=none;rounded=0;jumpStyle=arc;orthogonalLoop=1;jettySize=auto;html=1;dashed=1;dashPattern=1 4;fontSize=12;fontColor=#000000;" edge="1" parent="5Otl4xeU5iWGntY6309W-10" source="5Otl4xeU5iWGntY6309W-214" target="5Otl4xeU5iWGntY6309W-224">
          <mxGeometry relative="1" as="geometry">
            <Array as="points">
              <mxPoint x="390" y="575" />
              <mxPoint x="770" y="575" />
              <mxPoint x="830" y="335" />
              <mxPoint x="840" y="315" />
            </Array>
          </mxGeometry>
        </mxCell>
        <mxCell id="5Otl4xeU5iWGntY6309W-209" value="precedes" style="edgeLabel;html=1;align=center;verticalAlign=middle;resizable=0;points=[];fontSize=12;" vertex="1" connectable="0" parent="5Otl4xeU5iWGntY6309W-208">
          <mxGeometry x="-0.8699" y="3" relative="1" as="geometry">
            <mxPoint as="offset" />
          </mxGeometry>
        </mxCell>
        <mxCell id="5Otl4xeU5iWGntY6309W-242" style="edgeStyle=none;rounded=0;jumpStyle=arc;orthogonalLoop=1;jettySize=auto;html=1;startArrow=none;startFill=0;endArrow=classic;endFill=1;fontSize=12;fontColor=#000000;" edge="1" parent="5Otl4xeU5iWGntY6309W-10" source="5Otl4xeU5iWGntY6309W-215" target="5Otl4xeU5iWGntY6309W-202">
          <mxGeometry relative="1" as="geometry">
            <Array as="points">
              <mxPoint x="500" y="535" />
              <mxPoint x="1140" y="535" />
              <mxPoint x="1180" y="385" />
              <mxPoint x="1090" y="330" />
            </Array>
          </mxGeometry>
        </mxCell>
        <mxCell id="5Otl4xeU5iWGntY6309W-168" style="edgeStyle=none;rounded=0;jumpStyle=arc;orthogonalLoop=1;jettySize=auto;html=1;fontSize=12;fontColor=#000000;dashed=1;dashPattern=1 4;" edge="1" parent="5Otl4xeU5iWGntY6309W-10" source="5Otl4xeU5iWGntY6309W-170" target="5Otl4xeU5iWGntY6309W-225">
          <mxGeometry relative="1" as="geometry">
            <Array as="points">
              <mxPoint x="470" y="245" />
              <mxPoint x="650" y="215" />
              <mxPoint x="810" y="61" />
            </Array>
          </mxGeometry>
        </mxCell>
        <mxCell id="5Otl4xeU5iWGntY6309W-169" value="precedes" style="edgeLabel;html=1;align=center;verticalAlign=middle;resizable=0;points=[];fontSize=12;" vertex="1" connectable="0" parent="5Otl4xeU5iWGntY6309W-168">
          <mxGeometry x="0.143" relative="1" as="geometry">
            <mxPoint x="-277.43" y="64.57" as="offset" />
          </mxGeometry>
        </mxCell>
        <mxCell id="5Otl4xeU5iWGntY6309W-243" style="edgeStyle=none;rounded=0;orthogonalLoop=1;jettySize=auto;html=1;fontSize=12;fontColor=#000000;jumpStyle=arc;" edge="1" parent="5Otl4xeU5iWGntY6309W-10" source="5Otl4xeU5iWGntY6309W-222" target="5Otl4xeU5iWGntY6309W-223">
          <mxGeometry relative="1" as="geometry" />
        </mxCell>
        <mxCell id="5Otl4xeU5iWGntY6309W-244" value="Use case example - Customer updates account" style="text;html=1;strokeColor=none;fillColor=none;align=center;verticalAlign=middle;whiteSpace=wrap;rounded=0;fontSize=12;fontStyle=2" vertex="1" parent="5Otl4xeU5iWGntY6309W-10">
          <mxGeometry x="440" y="615" width="390" height="20" as="geometry" />
        </mxCell>
      </root>
    </mxGraphModel>
  </diagram>
  <diagram id="C5RBs43oDa-KdzZeNtuy" name="Klassendiagramm">
    <mxGraphModel dx="1434" dy="835" grid="1" gridSize="10" guides="1" tooltips="1" connect="1" arrows="1" fold="1" page="1" pageScale="1" pageWidth="827" pageHeight="1169" math="0" shadow="0">
      <root>
        <mxCell id="WIyWlLk6GJQsqaUBKTNV-0" />
        <mxCell id="WIyWlLk6GJQsqaUBKTNV-1" parent="WIyWlLk6GJQsqaUBKTNV-0" />
        <mxCell id="zkfFHV4jXpPFQw0GAbJ--0" value="Employee" style="swimlane;fontStyle=2;align=center;verticalAlign=top;childLayout=stackLayout;horizontal=1;startSize=26;horizontalStack=0;resizeParent=1;resizeLast=0;collapsible=1;marginBottom=0;rounded=0;shadow=0;strokeWidth=1;" parent="WIyWlLk6GJQsqaUBKTNV-1" vertex="1">
          <mxGeometry x="220" y="120" width="160" height="138" as="geometry">
            <mxRectangle x="230" y="140" width="160" height="26" as="alternateBounds" />
          </mxGeometry>
        </mxCell>
        <mxCell id="zkfFHV4jXpPFQw0GAbJ--1" value="Name" style="text;align=left;verticalAlign=top;spacingLeft=4;spacingRight=4;overflow=hidden;rotatable=0;points=[[0,0.5],[1,0.5]];portConstraint=eastwest;" parent="zkfFHV4jXpPFQw0GAbJ--0" vertex="1">
          <mxGeometry y="26" width="160" height="26" as="geometry" />
        </mxCell>
        <mxCell id="zkfFHV4jXpPFQw0GAbJ--2" value="Phone Number" style="text;align=left;verticalAlign=top;spacingLeft=4;spacingRight=4;overflow=hidden;rotatable=0;points=[[0,0.5],[1,0.5]];portConstraint=eastwest;rounded=0;shadow=0;html=0;" parent="zkfFHV4jXpPFQw0GAbJ--0" vertex="1">
          <mxGeometry y="52" width="160" height="26" as="geometry" />
        </mxCell>
        <mxCell id="zkfFHV4jXpPFQw0GAbJ--3" value="Email Address" style="text;align=left;verticalAlign=top;spacingLeft=4;spacingRight=4;overflow=hidden;rotatable=0;points=[[0,0.5],[1,0.5]];portConstraint=eastwest;rounded=0;shadow=0;html=0;" parent="zkfFHV4jXpPFQw0GAbJ--0" vertex="1">
          <mxGeometry y="78" width="160" height="26" as="geometry" />
        </mxCell>
        <mxCell id="zkfFHV4jXpPFQw0GAbJ--4" value="" style="line;html=1;strokeWidth=1;align=left;verticalAlign=middle;spacingTop=-1;spacingLeft=3;spacingRight=3;rotatable=0;labelPosition=right;points=[];portConstraint=eastwest;" parent="zkfFHV4jXpPFQw0GAbJ--0" vertex="1">
          <mxGeometry y="104" width="160" height="8" as="geometry" />
        </mxCell>
        <mxCell id="zkfFHV4jXpPFQw0GAbJ--5" value="Purchase Parking Pass" style="text;align=left;verticalAlign=top;spacingLeft=4;spacingRight=4;overflow=hidden;rotatable=0;points=[[0,0.5],[1,0.5]];portConstraint=eastwest;" parent="zkfFHV4jXpPFQw0GAbJ--0" vertex="1">
          <mxGeometry y="112" width="160" height="26" as="geometry" />
        </mxCell>
        <mxCell id="zkfFHV4jXpPFQw0GAbJ--17" value="Address" style="swimlane;fontStyle=0;align=center;verticalAlign=top;childLayout=stackLayout;horizontal=1;startSize=26;horizontalStack=0;resizeParent=1;resizeLast=0;collapsible=1;marginBottom=0;rounded=0;shadow=0;strokeWidth=1;" parent="WIyWlLk6GJQsqaUBKTNV-1" vertex="1">
          <mxGeometry x="508" y="120" width="160" height="216" as="geometry">
            <mxRectangle x="550" y="140" width="160" height="26" as="alternateBounds" />
          </mxGeometry>
        </mxCell>
        <mxCell id="zkfFHV4jXpPFQw0GAbJ--18" value="Street" style="text;align=left;verticalAlign=top;spacingLeft=4;spacingRight=4;overflow=hidden;rotatable=0;points=[[0,0.5],[1,0.5]];portConstraint=eastwest;" parent="zkfFHV4jXpPFQw0GAbJ--17" vertex="1">
          <mxGeometry y="26" width="160" height="26" as="geometry" />
        </mxCell>
        <mxCell id="zkfFHV4jXpPFQw0GAbJ--19" value="City" style="text;align=left;verticalAlign=top;spacingLeft=4;spacingRight=4;overflow=hidden;rotatable=0;points=[[0,0.5],[1,0.5]];portConstraint=eastwest;rounded=0;shadow=0;html=0;" parent="zkfFHV4jXpPFQw0GAbJ--17" vertex="1">
          <mxGeometry y="52" width="160" height="26" as="geometry" />
        </mxCell>
        <mxCell id="zkfFHV4jXpPFQw0GAbJ--20" value="State" style="text;align=left;verticalAlign=top;spacingLeft=4;spacingRight=4;overflow=hidden;rotatable=0;points=[[0,0.5],[1,0.5]];portConstraint=eastwest;rounded=0;shadow=0;html=0;" parent="zkfFHV4jXpPFQw0GAbJ--17" vertex="1">
          <mxGeometry y="78" width="160" height="26" as="geometry" />
        </mxCell>
        <mxCell id="zkfFHV4jXpPFQw0GAbJ--21" value="Postal Code" style="text;align=left;verticalAlign=top;spacingLeft=4;spacingRight=4;overflow=hidden;rotatable=0;points=[[0,0.5],[1,0.5]];portConstraint=eastwest;rounded=0;shadow=0;html=0;" parent="zkfFHV4jXpPFQw0GAbJ--17" vertex="1">
          <mxGeometry y="104" width="160" height="26" as="geometry" />
        </mxCell>
        <mxCell id="zkfFHV4jXpPFQw0GAbJ--22" value="Country" style="text;align=left;verticalAlign=top;spacingLeft=4;spacingRight=4;overflow=hidden;rotatable=0;points=[[0,0.5],[1,0.5]];portConstraint=eastwest;rounded=0;shadow=0;html=0;" parent="zkfFHV4jXpPFQw0GAbJ--17" vertex="1">
          <mxGeometry y="130" width="160" height="26" as="geometry" />
        </mxCell>
        <mxCell id="zkfFHV4jXpPFQw0GAbJ--23" value="" style="line;html=1;strokeWidth=1;align=left;verticalAlign=middle;spacingTop=-1;spacingLeft=3;spacingRight=3;rotatable=0;labelPosition=right;points=[];portConstraint=eastwest;" parent="zkfFHV4jXpPFQw0GAbJ--17" vertex="1">
          <mxGeometry y="156" width="160" height="8" as="geometry" />
        </mxCell>
        <mxCell id="zkfFHV4jXpPFQw0GAbJ--24" value="Validate" style="text;align=left;verticalAlign=top;spacingLeft=4;spacingRight=4;overflow=hidden;rotatable=0;points=[[0,0.5],[1,0.5]];portConstraint=eastwest;" parent="zkfFHV4jXpPFQw0GAbJ--17" vertex="1">
          <mxGeometry y="164" width="160" height="26" as="geometry" />
        </mxCell>
        <mxCell id="zkfFHV4jXpPFQw0GAbJ--25" value="Output As Label" style="text;align=left;verticalAlign=top;spacingLeft=4;spacingRight=4;overflow=hidden;rotatable=0;points=[[0,0.5],[1,0.5]];portConstraint=eastwest;" parent="zkfFHV4jXpPFQw0GAbJ--17" vertex="1">
          <mxGeometry y="190" width="160" height="26" as="geometry" />
        </mxCell>
        <mxCell id="zkfFHV4jXpPFQw0GAbJ--26" value="" style="endArrow=open;shadow=0;strokeWidth=1;rounded=0;endFill=1;edgeStyle=elbowEdgeStyle;elbow=vertical;" parent="WIyWlLk6GJQsqaUBKTNV-1" source="zkfFHV4jXpPFQw0GAbJ--0" target="zkfFHV4jXpPFQw0GAbJ--17" edge="1">
          <mxGeometry x="0.5" y="41" relative="1" as="geometry">
            <mxPoint x="380" y="192" as="sourcePoint" />
            <mxPoint x="540" y="192" as="targetPoint" />
            <mxPoint x="-40" y="32" as="offset" />
          </mxGeometry>
        </mxCell>
        <mxCell id="zkfFHV4jXpPFQw0GAbJ--27" value="0..1" style="resizable=0;align=left;verticalAlign=bottom;labelBackgroundColor=none;fontSize=12;" parent="zkfFHV4jXpPFQw0GAbJ--26" connectable="0" vertex="1">
          <mxGeometry x="-1" relative="1" as="geometry">
            <mxPoint y="4" as="offset" />
          </mxGeometry>
        </mxCell>
        <mxCell id="zkfFHV4jXpPFQw0GAbJ--28" value="1" style="resizable=0;align=right;verticalAlign=bottom;labelBackgroundColor=none;fontSize=12;" parent="zkfFHV4jXpPFQw0GAbJ--26" connectable="0" vertex="1">
          <mxGeometry x="1" relative="1" as="geometry">
            <mxPoint x="-7" y="4" as="offset" />
          </mxGeometry>
        </mxCell>
        <mxCell id="zkfFHV4jXpPFQw0GAbJ--29" value="lives at" style="text;html=1;resizable=0;points=[];;align=center;verticalAlign=middle;labelBackgroundColor=none;rounded=0;shadow=0;strokeWidth=1;fontSize=12;" parent="zkfFHV4jXpPFQw0GAbJ--26" vertex="1" connectable="0">
          <mxGeometry x="0.5" y="49" relative="1" as="geometry">
            <mxPoint x="-38" y="40" as="offset" />
          </mxGeometry>
        </mxCell>
      </root>
    </mxGraphModel>
  </diagram>
  <diagram id="iWQdEBiDFp8vNOKrzdiT" name="Deployment">
    <mxGraphModel dx="1434" dy="835" grid="1" gridSize="10" guides="1" tooltips="1" connect="1" arrows="1" fold="1" page="1" pageScale="1" pageWidth="850" pageHeight="1100" math="0" shadow="0">
      <root>
        <mxCell id="0" />
        <mxCell id="1" parent="0" />
      </root>
    </mxGraphModel>
  </diagram>
  <diagram id="JpTVPJ2leM6o1gjkdmsi" name="Activity">
    <mxGraphModel dx="2284" dy="1935" grid="1" gridSize="10" guides="1" tooltips="1" connect="1" arrows="1" fold="1" page="1" pageScale="1" pageWidth="850" pageHeight="1100" math="0" shadow="0">
      <root>
        <mxCell id="0" />
        <mxCell id="1" parent="0" />
        <mxCell id="mJucARJ0f2czxwEssIeI-1" value="" style="rounded=0;html=1;jettySize=auto;orthogonalLoop=1;fontSize=11;endArrow=block;endFill=0;endSize=8;strokeWidth=1;shadow=0;labelBackgroundColor=none;edgeStyle=orthogonalEdgeStyle;exitX=0.5;exitY=1;exitDx=0;exitDy=0;exitPerimeter=0;" edge="1" parent="1" source="mJucARJ0f2czxwEssIeI-8" target="mJucARJ0f2czxwEssIeI-6">
          <mxGeometry relative="1" as="geometry" />
        </mxCell>
        <mxCell id="mJucARJ0f2czxwEssIeI-2" value="" style="edgeStyle=orthogonalEdgeStyle;rounded=0;orthogonalLoop=1;jettySize=auto;html=1;" edge="1" parent="1" source="mJucARJ0f2czxwEssIeI-3" target="mJucARJ0f2czxwEssIeI-8">
          <mxGeometry relative="1" as="geometry" />
        </mxCell>
        <mxCell id="mJucARJ0f2czxwEssIeI-3" value="Show Ticket Options" style="rounded=1;whiteSpace=wrap;html=1;fontSize=12;glass=0;strokeWidth=1;shadow=0;" vertex="1" parent="1">
          <mxGeometry x="160" y="20" width="120" height="40" as="geometry" />
        </mxCell>
        <mxCell id="mJucARJ0f2czxwEssIeI-4" value="Yes" style="rounded=0;html=1;jettySize=auto;orthogonalLoop=1;fontSize=11;endArrow=block;endFill=0;endSize=8;strokeWidth=1;shadow=0;labelBackgroundColor=none;edgeStyle=orthogonalEdgeStyle;entryX=0.5;entryY=0;entryDx=0;entryDy=0;" edge="1" parent="1" source="mJucARJ0f2czxwEssIeI-6" target="mJucARJ0f2czxwEssIeI-10">
          <mxGeometry y="20" relative="1" as="geometry">
            <mxPoint as="offset" />
            <mxPoint x="220" y="269" as="targetPoint" />
          </mxGeometry>
        </mxCell>
        <mxCell id="mJucARJ0f2czxwEssIeI-5" value="No" style="edgeStyle=orthogonalEdgeStyle;rounded=0;html=1;jettySize=auto;orthogonalLoop=1;fontSize=11;endArrow=block;endFill=0;endSize=8;strokeWidth=1;shadow=0;labelBackgroundColor=none;entryX=1;entryY=0.5;entryDx=0;entryDy=0;" edge="1" parent="1" source="mJucARJ0f2czxwEssIeI-6" target="mJucARJ0f2czxwEssIeI-12">
          <mxGeometry y="10" relative="1" as="geometry">
            <mxPoint as="offset" />
            <mxPoint x="330" y="189" as="targetPoint" />
            <Array as="points">
              <mxPoint x="300" y="189" />
              <mxPoint x="300" y="345" />
            </Array>
          </mxGeometry>
        </mxCell>
        <mxCell id="mJucARJ0f2czxwEssIeI-6" value="Bahncard?" style="rhombus;whiteSpace=wrap;html=1;shadow=0;fontFamily=Helvetica;fontSize=12;align=center;strokeWidth=1;spacing=6;spacingTop=-4;fillColor=#ffe6cc;strokeColor=#d79b00;" vertex="1" parent="1">
          <mxGeometry x="170" y="149" width="100" height="80" as="geometry" />
        </mxCell>
        <mxCell id="mJucARJ0f2czxwEssIeI-7" value="" style="edgeStyle=orthogonalEdgeStyle;rounded=0;orthogonalLoop=1;jettySize=auto;html=1;exitX=0.5;exitY=1;exitDx=0;exitDy=0;exitPerimeter=0;" edge="1" parent="1" source="mJucARJ0f2czxwEssIeI-29" target="mJucARJ0f2czxwEssIeI-3">
          <mxGeometry relative="1" as="geometry">
            <mxPoint x="220.0588235294117" y="-10" as="sourcePoint" />
          </mxGeometry>
        </mxCell>
        <mxCell id="mJucARJ0f2czxwEssIeI-8" value="Select Ticket Type" style="rounded=1;whiteSpace=wrap;html=1;fontSize=12;glass=0;strokeWidth=1;shadow=0;" vertex="1" parent="1">
          <mxGeometry x="160" y="80" width="120" height="40" as="geometry" />
        </mxCell>
        <mxCell id="mJucARJ0f2czxwEssIeI-9" value="" style="edgeStyle=orthogonalEdgeStyle;rounded=0;orthogonalLoop=1;jettySize=auto;html=1;" edge="1" parent="1" source="mJucARJ0f2czxwEssIeI-10" target="mJucARJ0f2czxwEssIeI-12">
          <mxGeometry relative="1" as="geometry" />
        </mxCell>
        <mxCell id="mJucARJ0f2czxwEssIeI-10" value="Select BC Type" style="rounded=1;whiteSpace=wrap;html=1;fontSize=12;glass=0;strokeWidth=1;shadow=0;" vertex="1" parent="1">
          <mxGeometry x="160" y="259" width="120" height="40" as="geometry" />
        </mxCell>
        <mxCell id="mJucARJ0f2czxwEssIeI-11" value="" style="edgeStyle=orthogonalEdgeStyle;rounded=0;orthogonalLoop=1;jettySize=auto;html=1;endArrow=block;endFill=0;" edge="1" parent="1" source="mJucARJ0f2czxwEssIeI-12" target="mJucARJ0f2czxwEssIeI-14">
          <mxGeometry relative="1" as="geometry" />
        </mxCell>
        <mxCell id="mJucARJ0f2czxwEssIeI-12" value="Select Payment" style="rounded=1;whiteSpace=wrap;html=1;fontSize=12;glass=0;strokeWidth=1;shadow=0;" vertex="1" parent="1">
          <mxGeometry x="160" y="325" width="120" height="40" as="geometry" />
        </mxCell>
        <mxCell id="mJucARJ0f2czxwEssIeI-13" value="" style="edgeStyle=orthogonalEdgeStyle;rounded=0;orthogonalLoop=1;jettySize=auto;html=1;endArrow=block;endFill=0;" edge="1" parent="1" source="mJucARJ0f2czxwEssIeI-14" target="mJucARJ0f2czxwEssIeI-17">
          <mxGeometry relative="1" as="geometry" />
        </mxCell>
        <mxCell id="mJucARJ0f2czxwEssIeI-14" value="Cash?" style="rhombus;whiteSpace=wrap;html=1;shadow=0;fontFamily=Helvetica;fontSize=12;align=center;strokeWidth=1;spacing=6;spacingTop=-4;fillColor=#ffe6cc;strokeColor=#d79b00;" vertex="1" parent="1">
          <mxGeometry x="170" y="393" width="100" height="80" as="geometry" />
        </mxCell>
        <mxCell id="mJucARJ0f2czxwEssIeI-15" value="cash" style="rounded=1;whiteSpace=wrap;html=1;fontSize=12;glass=0;strokeWidth=1;shadow=0;" vertex="1" parent="1">
          <mxGeometry x="-10" y="503" width="120" height="40" as="geometry" />
        </mxCell>
        <mxCell id="mJucARJ0f2czxwEssIeI-16" value="" style="edgeStyle=orthogonalEdgeStyle;rounded=0;orthogonalLoop=1;jettySize=auto;html=1;" edge="1" parent="1" source="mJucARJ0f2czxwEssIeI-17" target="mJucARJ0f2czxwEssIeI-25">
          <mxGeometry relative="1" as="geometry" />
        </mxCell>
        <mxCell id="mJucARJ0f2czxwEssIeI-17" value="credit card" style="rounded=1;whiteSpace=wrap;html=1;fontSize=12;glass=0;strokeWidth=1;shadow=0;" vertex="1" parent="1">
          <mxGeometry x="160" y="503" width="120" height="40" as="geometry" />
        </mxCell>
        <mxCell id="mJucARJ0f2czxwEssIeI-18" value="bank account" style="rounded=1;whiteSpace=wrap;html=1;fontSize=12;glass=0;strokeWidth=1;shadow=0;" vertex="1" parent="1">
          <mxGeometry x="330" y="503" width="120" height="40" as="geometry" />
        </mxCell>
        <mxCell id="mJucARJ0f2czxwEssIeI-19" value="" style="edgeStyle=orthogonalEdgeStyle;rounded=0;orthogonalLoop=1;jettySize=auto;html=1;endArrow=block;endFill=0;exitX=1;exitY=0.5;exitDx=0;exitDy=0;entryX=0.5;entryY=0;entryDx=0;entryDy=0;" edge="1" parent="1" source="mJucARJ0f2czxwEssIeI-14" target="mJucARJ0f2czxwEssIeI-18">
          <mxGeometry relative="1" as="geometry">
            <mxPoint x="230" y="483" as="sourcePoint" />
            <mxPoint x="230" y="523" as="targetPoint" />
          </mxGeometry>
        </mxCell>
        <mxCell id="mJucARJ0f2czxwEssIeI-20" value="" style="edgeStyle=orthogonalEdgeStyle;rounded=0;orthogonalLoop=1;jettySize=auto;html=1;endArrow=block;endFill=0;exitX=0;exitY=0.5;exitDx=0;exitDy=0;entryX=0.5;entryY=0;entryDx=0;entryDy=0;" edge="1" parent="1" source="mJucARJ0f2czxwEssIeI-14" target="mJucARJ0f2czxwEssIeI-15">
          <mxGeometry relative="1" as="geometry">
            <mxPoint x="280" y="443" as="sourcePoint" />
            <mxPoint x="400" y="523" as="targetPoint" />
          </mxGeometry>
        </mxCell>
        <mxCell id="mJucARJ0f2czxwEssIeI-21" value="" style="edgeStyle=orthogonalEdgeStyle;rounded=0;orthogonalLoop=1;jettySize=auto;html=1;" edge="1" parent="1" source="mJucARJ0f2czxwEssIeI-22" target="mJucARJ0f2czxwEssIeI-23">
          <mxGeometry relative="1" as="geometry" />
        </mxCell>
        <mxCell id="mJucARJ0f2czxwEssIeI-22" value="Finish Transaction" style="rounded=1;whiteSpace=wrap;html=1;fontSize=12;glass=0;strokeWidth=1;shadow=0;" vertex="1" parent="1">
          <mxGeometry x="160" y="663" width="120" height="40" as="geometry" />
        </mxCell>
        <mxCell id="mJucARJ0f2czxwEssIeI-23" value="Print Ticket" style="rounded=1;whiteSpace=wrap;html=1;fontSize=12;glass=0;strokeWidth=1;shadow=0;fillColor=#d5e8d4;strokeColor=#82b366;" vertex="1" parent="1">
          <mxGeometry x="160" y="726" width="120" height="40" as="geometry" />
        </mxCell>
        <mxCell id="mJucARJ0f2czxwEssIeI-24" value="" style="edgeStyle=orthogonalEdgeStyle;rounded=0;orthogonalLoop=1;jettySize=auto;html=1;" edge="1" parent="1" source="mJucARJ0f2czxwEssIeI-25" target="mJucARJ0f2czxwEssIeI-22">
          <mxGeometry relative="1" as="geometry" />
        </mxCell>
        <mxCell id="mJucARJ0f2czxwEssIeI-25" value="Finished Payment" style="rhombus;whiteSpace=wrap;html=1;shadow=0;fontFamily=Helvetica;fontSize=12;align=center;strokeWidth=1;spacing=6;spacingTop=-4;fillColor=#ffe6cc;strokeColor=#d79b00;" vertex="1" parent="1">
          <mxGeometry x="170" y="564" width="100" height="80" as="geometry" />
        </mxCell>
        <mxCell id="mJucARJ0f2czxwEssIeI-26" value="" style="edgeStyle=orthogonalEdgeStyle;rounded=0;orthogonalLoop=1;jettySize=auto;html=1;endArrow=classic;endFill=1;entryX=1;entryY=0.5;entryDx=0;entryDy=0;entryPerimeter=0;exitX=1;exitY=0.5;exitDx=0;exitDy=0;" edge="1" parent="1" source="mJucARJ0f2czxwEssIeI-23" target="mJucARJ0f2czxwEssIeI-29">
          <mxGeometry relative="1" as="geometry">
            <mxPoint x="280" y="500" as="sourcePoint" />
            <mxPoint x="310" y="-10" as="targetPoint" />
            <Array as="points">
              <mxPoint x="520" y="746" />
              <mxPoint x="520" y="-21" />
            </Array>
          </mxGeometry>
        </mxCell>
        <mxCell id="mJucARJ0f2czxwEssIeI-27" value="" style="edgeStyle=orthogonalEdgeStyle;rounded=0;orthogonalLoop=1;jettySize=auto;html=1;exitX=0.5;exitY=1;exitDx=0;exitDy=0;entryX=0;entryY=0.5;entryDx=0;entryDy=0;" edge="1" parent="1" source="mJucARJ0f2czxwEssIeI-15" target="mJucARJ0f2czxwEssIeI-25">
          <mxGeometry relative="1" as="geometry">
            <mxPoint x="230" y="673" as="sourcePoint" />
            <mxPoint x="230" y="713" as="targetPoint" />
          </mxGeometry>
        </mxCell>
        <mxCell id="mJucARJ0f2czxwEssIeI-28" value="" style="edgeStyle=orthogonalEdgeStyle;rounded=0;orthogonalLoop=1;jettySize=auto;html=1;exitX=0.5;exitY=1;exitDx=0;exitDy=0;entryX=1;entryY=0.5;entryDx=0;entryDy=0;" edge="1" parent="1" source="mJucARJ0f2czxwEssIeI-18" target="mJucARJ0f2czxwEssIeI-25">
          <mxGeometry relative="1" as="geometry">
            <mxPoint x="60" y="563" as="sourcePoint" />
            <mxPoint x="180" y="633" as="targetPoint" />
          </mxGeometry>
        </mxCell>
        <mxCell id="mJucARJ0f2czxwEssIeI-29" value="Ready" style="strokeWidth=1;html=1;shape=mxgraph.flowchart.start_1;whiteSpace=wrap;fillColor=#d5e8d4;strokeColor=#82b366;" vertex="1" parent="1">
          <mxGeometry x="170" y="-41" width="100" height="40" as="geometry" />
        </mxCell>
        <mxCell id="mJucARJ0f2czxwEssIeI-30" value="" style="edgeStyle=orthogonalEdgeStyle;rounded=0;orthogonalLoop=1;jettySize=auto;html=1;" edge="1" parent="1" source="mJucARJ0f2czxwEssIeI-31" target="mJucARJ0f2czxwEssIeI-29">
          <mxGeometry relative="1" as="geometry" />
        </mxCell>
        <mxCell id="mJucARJ0f2czxwEssIeI-31" value="" style="ellipse;fillColor=strokeColor;html=1;" vertex="1" parent="1">
          <mxGeometry x="205" y="-120" width="30" height="30" as="geometry" />
        </mxCell>
        <mxCell id="mJucARJ0f2czxwEssIeI-32" value="" style="ellipse;fillColor=strokeColor;html=1;" vertex="1" parent="1">
          <mxGeometry x="-640" y="-41" width="30" height="30" as="geometry" />
        </mxCell>
        <mxCell id="mJucARJ0f2czxwEssIeI-33" value="" style="shape=sumEllipse;perimeter=ellipsePerimeter;html=1;backgroundOutline=1;" vertex="1" parent="1">
          <mxGeometry x="-640" y="25" width="30" height="30" as="geometry" />
        </mxCell>
        <mxCell id="mJucARJ0f2czxwEssIeI-34" value="" style="rounded=0;orthogonalLoop=1;jettySize=auto;html=1;" edge="1" parent="1">
          <mxGeometry relative="1" as="geometry">
            <mxPoint x="-655" y="90" as="sourcePoint" />
            <mxPoint x="-595" y="90" as="targetPoint" />
          </mxGeometry>
        </mxCell>
        <mxCell id="mJucARJ0f2czxwEssIeI-35" value="Show Ticket Options" style="rounded=1;whiteSpace=wrap;html=1;fontSize=12;glass=0;strokeWidth=1;shadow=0;" vertex="1" parent="1">
          <mxGeometry x="-685" y="130" width="120" height="40" as="geometry" />
        </mxCell>
        <mxCell id="mJucARJ0f2czxwEssIeI-36" value="Ready" style="strokeWidth=1;html=1;shape=mxgraph.flowchart.start_1;whiteSpace=wrap;" vertex="1" parent="1">
          <mxGeometry x="-675" y="210" width="100" height="40" as="geometry" />
        </mxCell>
        <mxCell id="mJucARJ0f2czxwEssIeI-37" value="Bahncard?" style="rhombus;whiteSpace=wrap;html=1;shadow=0;fontFamily=Helvetica;fontSize=12;align=center;strokeWidth=1;spacing=6;spacingTop=-4;" vertex="1" parent="1">
          <mxGeometry x="-675" y="285" width="100" height="80" as="geometry" />
        </mxCell>
        <mxCell id="mJucARJ0f2czxwEssIeI-38" value="" style="html=1;points=[];perimeter=orthogonalPerimeter;fillColor=strokeColor;" vertex="1" parent="1">
          <mxGeometry x="-627.5" y="393" width="5" height="80" as="geometry" />
        </mxCell>
        <mxCell id="mJucARJ0f2czxwEssIeI-39" value="" style="rounded=0;orthogonalLoop=1;jettySize=auto;html=1;" edge="1" parent="1">
          <mxGeometry relative="1" as="geometry">
            <mxPoint x="-687.5" y="432.5" as="sourcePoint" />
            <mxPoint x="-627.5" y="432.5" as="targetPoint" />
          </mxGeometry>
        </mxCell>
        <mxCell id="mJucARJ0f2czxwEssIeI-40" value="" style="rounded=0;orthogonalLoop=1;jettySize=auto;html=1;" edge="1" parent="1">
          <mxGeometry relative="1" as="geometry">
            <mxPoint x="-622.5" y="410" as="sourcePoint" />
            <mxPoint x="-562.5" y="410" as="targetPoint" />
          </mxGeometry>
        </mxCell>
        <mxCell id="mJucARJ0f2czxwEssIeI-41" value="" style="rounded=0;orthogonalLoop=1;jettySize=auto;html=1;" edge="1" parent="1">
          <mxGeometry relative="1" as="geometry">
            <mxPoint x="-622.5" y="460" as="sourcePoint" />
            <mxPoint x="-562.5" y="460" as="targetPoint" />
          </mxGeometry>
        </mxCell>
        <mxCell id="mJucARJ0f2czxwEssIeI-42" value="" style="html=1;points=[];perimeter=orthogonalPerimeter;fillColor=strokeColor;" vertex="1" parent="1">
          <mxGeometry x="-627" y="500" width="5" height="80" as="geometry" />
        </mxCell>
        <mxCell id="mJucARJ0f2czxwEssIeI-43" value="" style="rounded=0;orthogonalLoop=1;jettySize=auto;html=1;" edge="1" parent="1">
          <mxGeometry relative="1" as="geometry">
            <mxPoint x="-624" y="539.5" as="sourcePoint" />
            <mxPoint x="-564" y="539.5" as="targetPoint" />
          </mxGeometry>
        </mxCell>
        <mxCell id="mJucARJ0f2czxwEssIeI-44" value="" style="rounded=0;orthogonalLoop=1;jettySize=auto;html=1;" edge="1" parent="1">
          <mxGeometry relative="1" as="geometry">
            <mxPoint x="-687.5" y="517" as="sourcePoint" />
            <mxPoint x="-627.5" y="517" as="targetPoint" />
          </mxGeometry>
        </mxCell>
        <mxCell id="mJucARJ0f2czxwEssIeI-45" value="" style="rounded=0;orthogonalLoop=1;jettySize=auto;html=1;" edge="1" parent="1">
          <mxGeometry relative="1" as="geometry">
            <mxPoint x="-687.5" y="567" as="sourcePoint" />
            <mxPoint x="-627.5" y="567" as="targetPoint" />
          </mxGeometry>
        </mxCell>
        <mxCell id="mJucARJ0f2czxwEssIeI-46" value="Credit Card Payment" style="shape=mxgraph.uml25.behaviorAction;html=1;rounded=1;absoluteArcSize=1;arcSize=10;align=left;spacingLeft=5;whiteSpace=wrap;" vertex="1" parent="1">
          <mxGeometry x="-719.5" y="610" width="190" height="60" as="geometry" />
        </mxCell>
        <mxCell id="mJucARJ0f2czxwEssIeI-47" value="" style="shape=table;html=1;whiteSpace=wrap;startSize=20;container=1;collapsible=0;childLayout=tableLayout;fillColor=none;swimlaneFillColor=#ffffff;strokeColor=none;" vertex="1" parent="1">
          <mxGeometry x="-715" y="690" width="180" height="200" as="geometry" />
        </mxCell>
        <mxCell id="mJucARJ0f2czxwEssIeI-48" value="" style="shape=partialRectangle;html=1;whiteSpace=wrap;collapsible=0;dropTarget=0;pointerEvents=0;fillColor=none;top=0;left=0;bottom=0;right=0;points=[[0,0.5],[1,0.5]];portConstraint=eastwest;strokeColor=none;" vertex="1" parent="mJucARJ0f2czxwEssIeI-47">
          <mxGeometry y="20" width="180" height="20" as="geometry" />
        </mxCell>
        <mxCell id="mJucARJ0f2czxwEssIeI-49" value="" style="shape=partialRectangle;html=1;whiteSpace=wrap;connectable=0;fillColor=none;top=1;left=1;bottom=1;right=1;overflow=hidden;strokeColor=none;" vertex="1" parent="mJucARJ0f2czxwEssIeI-48">
          <mxGeometry width="20" height="20" as="geometry">
            <mxRectangle width="20" height="20" as="alternateBounds" />
          </mxGeometry>
        </mxCell>
        <mxCell id="mJucARJ0f2czxwEssIeI-50" value="Anmeldung" style="shape=partialRectangle;html=1;whiteSpace=wrap;connectable=0;fillColor=none;top=1;left=1;bottom=1;right=1;overflow=hidden;" vertex="1" parent="mJucARJ0f2czxwEssIeI-48">
          <mxGeometry x="20" width="80" height="20" as="geometry">
            <mxRectangle width="80" height="20" as="alternateBounds" />
          </mxGeometry>
        </mxCell>
        <mxCell id="mJucARJ0f2czxwEssIeI-51" value="Ticketwahl" style="shape=partialRectangle;html=1;whiteSpace=wrap;connectable=0;fillColor=none;top=1;left=1;bottom=1;right=1;overflow=hidden;" vertex="1" parent="mJucARJ0f2czxwEssIeI-48">
          <mxGeometry x="100" width="80" height="20" as="geometry">
            <mxRectangle width="80" height="20" as="alternateBounds" />
          </mxGeometry>
        </mxCell>
        <mxCell id="mJucARJ0f2czxwEssIeI-52" value="" style="shape=partialRectangle;html=1;whiteSpace=wrap;collapsible=0;dropTarget=0;pointerEvents=0;fillColor=none;top=1;left=1;bottom=1;right=1;points=[[0,0.5],[1,0.5]];portConstraint=eastwest;" vertex="1" parent="mJucARJ0f2czxwEssIeI-47">
          <mxGeometry y="40" width="180" height="70" as="geometry" />
        </mxCell>
        <mxCell id="mJucARJ0f2czxwEssIeI-53" value="Automat" style="shape=partialRectangle;html=1;whiteSpace=wrap;connectable=0;fillColor=none;top=1;left=1;bottom=1;right=1;overflow=hidden;horizontal=0;" vertex="1" parent="mJucARJ0f2czxwEssIeI-52">
          <mxGeometry width="20" height="70" as="geometry">
            <mxRectangle width="20" height="70" as="alternateBounds" />
          </mxGeometry>
        </mxCell>
        <mxCell id="mJucARJ0f2czxwEssIeI-54" value="" style="shape=partialRectangle;html=1;whiteSpace=wrap;connectable=0;fillColor=none;top=1;left=1;bottom=1;right=1;overflow=hidden;" vertex="1" parent="mJucARJ0f2czxwEssIeI-52">
          <mxGeometry x="20" width="80" height="70" as="geometry">
            <mxRectangle width="80" height="70" as="alternateBounds" />
          </mxGeometry>
        </mxCell>
        <mxCell id="mJucARJ0f2czxwEssIeI-55" value="" style="shape=partialRectangle;html=1;whiteSpace=wrap;connectable=0;fillColor=none;top=1;left=1;bottom=1;right=1;overflow=hidden;" vertex="1" parent="mJucARJ0f2czxwEssIeI-52">
          <mxGeometry x="100" width="80" height="70" as="geometry">
            <mxRectangle width="80" height="70" as="alternateBounds" />
          </mxGeometry>
        </mxCell>
        <mxCell id="mJucARJ0f2czxwEssIeI-56" value="" style="shape=partialRectangle;html=1;whiteSpace=wrap;collapsible=0;dropTarget=0;pointerEvents=0;fillColor=none;top=1;left=1;bottom=1;right=1;points=[[0,0.5],[1,0.5]];portConstraint=eastwest;" vertex="1" parent="mJucARJ0f2czxwEssIeI-47">
          <mxGeometry y="110" width="180" height="90" as="geometry" />
        </mxCell>
        <mxCell id="mJucARJ0f2czxwEssIeI-57" value="Tarifserver" style="shape=partialRectangle;html=1;whiteSpace=wrap;connectable=0;fillColor=none;top=1;left=1;bottom=1;right=1;overflow=hidden;horizontal=0;" vertex="1" parent="mJucARJ0f2czxwEssIeI-56">
          <mxGeometry width="20" height="90" as="geometry">
            <mxRectangle width="20" height="90" as="alternateBounds" />
          </mxGeometry>
        </mxCell>
        <mxCell id="mJucARJ0f2czxwEssIeI-58" value="" style="shape=partialRectangle;html=1;whiteSpace=wrap;connectable=0;fillColor=none;top=1;left=1;bottom=1;right=1;overflow=hidden;" vertex="1" parent="mJucARJ0f2czxwEssIeI-56">
          <mxGeometry x="20" width="80" height="90" as="geometry">
            <mxRectangle width="80" height="90" as="alternateBounds" />
          </mxGeometry>
        </mxCell>
        <mxCell id="mJucARJ0f2czxwEssIeI-59" value="" style="shape=partialRectangle;html=1;whiteSpace=wrap;connectable=0;fillColor=none;top=1;left=1;bottom=1;right=1;overflow=hidden;" vertex="1" parent="mJucARJ0f2czxwEssIeI-56">
          <mxGeometry x="100" width="80" height="90" as="geometry">
            <mxRectangle width="80" height="90" as="alternateBounds" />
          </mxGeometry>
        </mxCell>
        <mxCell id="mJucARJ0f2czxwEssIeI-60" value="Kunden-ID" style="html=1;shape=mxgraph.infographic.ribbonSimple;notch1=0;notch2=20;align=center;verticalAlign=middle;fontSize=14;fontStyle=0;fillColor=#FFFFFF;whiteSpace=wrap;" vertex="1" parent="1">
          <mxGeometry x="-705" y="920" width="160" height="40" as="geometry" />
        </mxCell>
        <mxCell id="A_mBa-yiF6dFhW5c6P_y-1" value="Actors" style="swimlane;html=1;childLayout=stackLayout;resizeParent=1;resizeParentMax=0;horizontal=0;startSize=20;horizontalStack=0;whiteSpace=wrap;verticalAlign=middle;" vertex="1" parent="1">
          <mxGeometry x="880" width="890" height="510" as="geometry" />
        </mxCell>
        <mxCell id="A_mBa-yiF6dFhW5c6P_y-2" value="&lt;div&gt;Orders&lt;/div&gt;" style="swimlane;html=1;startSize=20;horizontal=0;fillColor=#fff2cc;strokeColor=#d6b656;" vertex="1" parent="A_mBa-yiF6dFhW5c6P_y-1">
          <mxGeometry x="20" width="870" height="270" as="geometry" />
        </mxCell>
        <mxCell id="A_mBa-yiF6dFhW5c6P_y-3" value="" style="html=1;align=center;verticalAlign=top;rounded=1;absoluteArcSize=1;arcSize=20;dashed=1;fontColor=#333333;fillColor=#f9f9f9;strokeColor=#999999;" vertex="1" parent="A_mBa-yiF6dFhW5c6P_y-2">
          <mxGeometry x="90" y="10" width="480" height="170" as="geometry" />
        </mxCell>
        <mxCell id="A_mBa-yiF6dFhW5c6P_y-4" value="&lt;div&gt;Receive &lt;br&gt;&lt;/div&gt;&lt;div&gt;order&lt;/div&gt;" style="html=1;align=center;verticalAlign=top;rounded=1;absoluteArcSize=1;arcSize=10;dashed=0;fillColor=#fff2cc;strokeColor=#d6b656;" vertex="1" parent="A_mBa-yiF6dFhW5c6P_y-2">
          <mxGeometry x="104" y="105" width="66" height="40" as="geometry" />
        </mxCell>
        <mxCell id="A_mBa-yiF6dFhW5c6P_y-5" style="edgeStyle=orthogonalEdgeStyle;rounded=0;orthogonalLoop=1;jettySize=auto;html=1;" edge="1" parent="A_mBa-yiF6dFhW5c6P_y-2" source="A_mBa-yiF6dFhW5c6P_y-6" target="A_mBa-yiF6dFhW5c6P_y-17">
          <mxGeometry relative="1" as="geometry">
            <Array as="points">
              <mxPoint x="215" y="75" />
              <mxPoint x="770" y="75" />
            </Array>
            <mxPoint x="675" y="110" as="targetPoint" />
          </mxGeometry>
        </mxCell>
        <mxCell id="A_mBa-yiF6dFhW5c6P_y-6" value="" style="rhombus;fillColor=#fff2cc;strokeColor=#d6b656;" vertex="1" parent="A_mBa-yiF6dFhW5c6P_y-2">
          <mxGeometry x="200" y="110" width="30" height="30" as="geometry" />
        </mxCell>
        <mxCell id="A_mBa-yiF6dFhW5c6P_y-7" value="" style="edgeStyle=orthogonalEdgeStyle;rounded=0;orthogonalLoop=1;jettySize=auto;html=1;" edge="1" parent="A_mBa-yiF6dFhW5c6P_y-2" source="A_mBa-yiF6dFhW5c6P_y-4" target="A_mBa-yiF6dFhW5c6P_y-6">
          <mxGeometry relative="1" as="geometry" />
        </mxCell>
        <mxCell id="A_mBa-yiF6dFhW5c6P_y-8" value="Fill order" style="html=1;align=center;verticalAlign=middle;rounded=1;absoluteArcSize=1;arcSize=10;dashed=0;fillColor=#fff2cc;strokeColor=#d6b656;" vertex="1" parent="A_mBa-yiF6dFhW5c6P_y-2">
          <mxGeometry x="320" y="105" width="60" height="40" as="geometry" />
        </mxCell>
        <mxCell id="A_mBa-yiF6dFhW5c6P_y-9" value="[order accepted]" style="edgeStyle=orthogonalEdgeStyle;rounded=0;orthogonalLoop=1;jettySize=auto;html=1;labelBackgroundColor=none;" edge="1" parent="A_mBa-yiF6dFhW5c6P_y-2" source="A_mBa-yiF6dFhW5c6P_y-6" target="A_mBa-yiF6dFhW5c6P_y-8">
          <mxGeometry x="-0.1111" y="-10" relative="1" as="geometry">
            <mxPoint as="offset" />
          </mxGeometry>
        </mxCell>
        <mxCell id="A_mBa-yiF6dFhW5c6P_y-10" value="" style="html=1;points=[];perimeter=orthogonalPerimeter;fillColor=#000000;strokeColor=none;" vertex="1" parent="A_mBa-yiF6dFhW5c6P_y-2">
          <mxGeometry x="410" y="85" width="5" height="80" as="geometry" />
        </mxCell>
        <mxCell id="A_mBa-yiF6dFhW5c6P_y-11" value="" style="edgeStyle=orthogonalEdgeStyle;rounded=0;orthogonalLoop=1;jettySize=auto;html=1;" edge="1" parent="A_mBa-yiF6dFhW5c6P_y-2" source="A_mBa-yiF6dFhW5c6P_y-8" target="A_mBa-yiF6dFhW5c6P_y-10">
          <mxGeometry relative="1" as="geometry" />
        </mxCell>
        <mxCell id="A_mBa-yiF6dFhW5c6P_y-12" value="Prepare &lt;br&gt;shipment" style="html=1;align=center;verticalAlign=middle;rounded=1;absoluteArcSize=1;arcSize=10;dashed=0;fillColor=#fff2cc;strokeColor=#d6b656;" vertex="1" parent="A_mBa-yiF6dFhW5c6P_y-2">
          <mxGeometry x="470" y="105" width="80" height="40" as="geometry" />
        </mxCell>
        <mxCell id="A_mBa-yiF6dFhW5c6P_y-13" value="" style="edgeStyle=orthogonalEdgeStyle;rounded=0;orthogonalLoop=1;jettySize=auto;html=1;" edge="1" parent="A_mBa-yiF6dFhW5c6P_y-2" source="A_mBa-yiF6dFhW5c6P_y-10" target="A_mBa-yiF6dFhW5c6P_y-12">
          <mxGeometry relative="1" as="geometry">
            <Array as="points" />
          </mxGeometry>
        </mxCell>
        <mxCell id="A_mBa-yiF6dFhW5c6P_y-14" style="edgeStyle=orthogonalEdgeStyle;rounded=0;orthogonalLoop=1;jettySize=auto;html=1;labelBackgroundColor=none;endArrow=classic;endFill=1;" edge="1" parent="A_mBa-yiF6dFhW5c6P_y-2" source="A_mBa-yiF6dFhW5c6P_y-15" target="A_mBa-yiF6dFhW5c6P_y-25">
          <mxGeometry relative="1" as="geometry" />
        </mxCell>
        <mxCell id="A_mBa-yiF6dFhW5c6P_y-15" value="" style="html=1;points=[];perimeter=orthogonalPerimeter;fillColor=#000000;strokeColor=none;" vertex="1" parent="A_mBa-yiF6dFhW5c6P_y-2">
          <mxGeometry x="610" y="85" width="5" height="80" as="geometry" />
        </mxCell>
        <mxCell id="A_mBa-yiF6dFhW5c6P_y-16" value="" style="edgeStyle=none;rounded=0;orthogonalLoop=1;jettySize=auto;html=1;" edge="1" parent="A_mBa-yiF6dFhW5c6P_y-2" source="A_mBa-yiF6dFhW5c6P_y-12" target="A_mBa-yiF6dFhW5c6P_y-15">
          <mxGeometry relative="1" as="geometry" />
        </mxCell>
        <mxCell id="A_mBa-yiF6dFhW5c6P_y-17" value="&lt;div&gt;Close &lt;br&gt;&lt;/div&gt;&lt;div&gt;order&lt;/div&gt;" style="html=1;align=center;verticalAlign=top;rounded=1;absoluteArcSize=1;arcSize=10;dashed=0;fillColor=#fff2cc;strokeColor=#d6b656;" vertex="1" parent="A_mBa-yiF6dFhW5c6P_y-2">
          <mxGeometry x="745" y="105" width="60" height="40" as="geometry" />
        </mxCell>
        <mxCell id="A_mBa-yiF6dFhW5c6P_y-18" value="" style="edgeStyle=orthogonalEdgeStyle;rounded=0;orthogonalLoop=1;jettySize=auto;html=1;" edge="1" parent="A_mBa-yiF6dFhW5c6P_y-2" source="A_mBa-yiF6dFhW5c6P_y-25" target="A_mBa-yiF6dFhW5c6P_y-17">
          <mxGeometry relative="1" as="geometry">
            <mxPoint x="690" y="125" as="sourcePoint" />
          </mxGeometry>
        </mxCell>
        <mxCell id="A_mBa-yiF6dFhW5c6P_y-19" value="" style="ellipse;html=1;shape=endState;fillColor=#000000;strokeColor=#000000;" vertex="1" parent="A_mBa-yiF6dFhW5c6P_y-2">
          <mxGeometry x="830" y="210" width="30" height="30" as="geometry" />
        </mxCell>
        <mxCell id="A_mBa-yiF6dFhW5c6P_y-20" value="" style="rounded=0;orthogonalLoop=1;jettySize=auto;html=1;" edge="1" parent="A_mBa-yiF6dFhW5c6P_y-2" source="A_mBa-yiF6dFhW5c6P_y-17" target="A_mBa-yiF6dFhW5c6P_y-19">
          <mxGeometry relative="1" as="geometry" />
        </mxCell>
        <mxCell id="A_mBa-yiF6dFhW5c6P_y-21" value="Order cancel request" style="html=1;shape=mxgraph.infographic.ribbonSimple;notch1=20;notch2=0;align=center;verticalAlign=middle;fontSize=14;fontStyle=0;fillColor=#f8cecc;flipH=0;spacingRight=0;spacingLeft=14;strokeColor=#b85450;" vertex="1" parent="A_mBa-yiF6dFhW5c6P_y-2">
          <mxGeometry x="380" y="20" width="170" height="40" as="geometry" />
        </mxCell>
        <mxCell id="A_mBa-yiF6dFhW5c6P_y-22" style="edgeStyle=orthogonalEdgeStyle;rounded=0;orthogonalLoop=1;jettySize=auto;html=1;" edge="1" parent="A_mBa-yiF6dFhW5c6P_y-2" source="A_mBa-yiF6dFhW5c6P_y-23" target="A_mBa-yiF6dFhW5c6P_y-19">
          <mxGeometry relative="1" as="geometry" />
        </mxCell>
        <mxCell id="A_mBa-yiF6dFhW5c6P_y-23" value="&lt;div&gt;Cancel &lt;br&gt;&lt;/div&gt;&lt;div&gt;order&lt;/div&gt;" style="html=1;align=center;verticalAlign=top;rounded=1;absoluteArcSize=1;arcSize=10;dashed=0;fillColor=#f8cecc;strokeColor=#b85450;" vertex="1" parent="A_mBa-yiF6dFhW5c6P_y-2">
          <mxGeometry x="745" y="20" width="60" height="40" as="geometry" />
        </mxCell>
        <mxCell id="A_mBa-yiF6dFhW5c6P_y-24" value="" style="shape=mxgraph.lean_mapping.electronic_info_flow_edge;html=1;" edge="1" parent="A_mBa-yiF6dFhW5c6P_y-2" source="A_mBa-yiF6dFhW5c6P_y-21" target="A_mBa-yiF6dFhW5c6P_y-23">
          <mxGeometry width="160" relative="1" as="geometry">
            <mxPoint x="640" y="-60" as="sourcePoint" />
            <mxPoint x="800" y="-60" as="targetPoint" />
          </mxGeometry>
        </mxCell>
        <mxCell id="A_mBa-yiF6dFhW5c6P_y-25" value="&lt;div&gt;Ship&lt;br&gt;&lt;/div&gt;&lt;div&gt;order&lt;/div&gt;" style="html=1;align=center;verticalAlign=top;rounded=1;absoluteArcSize=1;arcSize=10;dashed=0;fillColor=#fff2cc;strokeColor=#d6b656;" vertex="1" parent="A_mBa-yiF6dFhW5c6P_y-2">
          <mxGeometry x="650" y="105" width="60" height="40" as="geometry" />
        </mxCell>
        <mxCell id="A_mBa-yiF6dFhW5c6P_y-26" value="Accounting" style="swimlane;html=1;startSize=20;horizontal=0;fillColor=#d5e8d4;strokeColor=#82b366;" vertex="1" parent="A_mBa-yiF6dFhW5c6P_y-1">
          <mxGeometry x="20" y="270" width="870" height="120" as="geometry" />
        </mxCell>
        <mxCell id="A_mBa-yiF6dFhW5c6P_y-27" value="Send invoice" style="html=1;align=center;verticalAlign=middle;rounded=1;absoluteArcSize=1;arcSize=10;dashed=0;fillColor=#d5e8d4;strokeColor=#82b366;" vertex="1" parent="A_mBa-yiF6dFhW5c6P_y-26">
          <mxGeometry x="240" y="40" width="90" height="40" as="geometry" />
        </mxCell>
        <mxCell id="A_mBa-yiF6dFhW5c6P_y-28" value="&lt;div&gt;Accept &lt;br&gt;&lt;/div&gt;&lt;div&gt;payment&lt;/div&gt;" style="html=1;align=center;verticalAlign=top;rounded=1;absoluteArcSize=1;arcSize=10;dashed=0;fillColor=#d5e8d4;strokeColor=#82b366;" vertex="1" parent="A_mBa-yiF6dFhW5c6P_y-26">
          <mxGeometry x="540" y="30" width="70" height="40" as="geometry" />
        </mxCell>
        <mxCell id="A_mBa-yiF6dFhW5c6P_y-29" value="Customer" style="swimlane;html=1;startSize=20;horizontal=0;fillColor=#e1d5e7;strokeColor=#9673a6;" vertex="1" parent="A_mBa-yiF6dFhW5c6P_y-1">
          <mxGeometry x="20" y="390" width="870" height="120" as="geometry" />
        </mxCell>
        <mxCell id="A_mBa-yiF6dFhW5c6P_y-30" value="&lt;div&gt;Send &lt;br&gt;&lt;/div&gt;&lt;div&gt;payment&lt;/div&gt;" style="html=1;align=center;verticalAlign=middle;rounded=1;absoluteArcSize=1;arcSize=10;dashed=0;fillColor=#e1d5e7;strokeColor=#9673a6;" vertex="1" parent="A_mBa-yiF6dFhW5c6P_y-29">
          <mxGeometry x="470" y="40" width="70" height="40" as="geometry" />
        </mxCell>
        <mxCell id="A_mBa-yiF6dFhW5c6P_y-31" value="" style="ellipse;fillColor=#000000;strokeColor=none;" vertex="1" parent="A_mBa-yiF6dFhW5c6P_y-29">
          <mxGeometry x="30" y="45" width="30" height="30" as="geometry" />
        </mxCell>
        <mxCell id="A_mBa-yiF6dFhW5c6P_y-32" value="Submit order" style="rounded=1;whiteSpace=wrap;html=1;fillColor=#e1d5e7;strokeColor=#9673a6;" vertex="1" parent="A_mBa-yiF6dFhW5c6P_y-29">
          <mxGeometry x="102" y="40" width="70" height="40" as="geometry" />
        </mxCell>
        <mxCell id="A_mBa-yiF6dFhW5c6P_y-33" value="" style="edgeStyle=orthogonalEdgeStyle;rounded=0;orthogonalLoop=1;jettySize=auto;html=1;" edge="1" parent="A_mBa-yiF6dFhW5c6P_y-29" source="A_mBa-yiF6dFhW5c6P_y-31" target="A_mBa-yiF6dFhW5c6P_y-32">
          <mxGeometry relative="1" as="geometry" />
        </mxCell>
        <mxCell id="A_mBa-yiF6dFhW5c6P_y-34" style="edgeStyle=orthogonalEdgeStyle;rounded=0;orthogonalLoop=1;jettySize=auto;html=1;exitX=0.2;exitY=0.613;exitDx=0;exitDy=0;exitPerimeter=0;" edge="1" parent="A_mBa-yiF6dFhW5c6P_y-1" source="A_mBa-yiF6dFhW5c6P_y-10" target="A_mBa-yiF6dFhW5c6P_y-27">
          <mxGeometry relative="1" as="geometry">
            <mxPoint x="585" y="60" as="sourcePoint" />
            <Array as="points">
              <mxPoint x="431" y="140" />
              <mxPoint x="470" y="140" />
              <mxPoint x="470" y="200" />
              <mxPoint x="305" y="200" />
            </Array>
          </mxGeometry>
        </mxCell>
        <mxCell id="A_mBa-yiF6dFhW5c6P_y-35" style="edgeStyle=none;rounded=0;orthogonalLoop=1;jettySize=auto;html=1;" edge="1" parent="A_mBa-yiF6dFhW5c6P_y-1" source="A_mBa-yiF6dFhW5c6P_y-30" target="A_mBa-yiF6dFhW5c6P_y-28">
          <mxGeometry relative="1" as="geometry" />
        </mxCell>
        <mxCell id="A_mBa-yiF6dFhW5c6P_y-36" style="edgeStyle=orthogonalEdgeStyle;rounded=0;orthogonalLoop=1;jettySize=auto;html=1;" edge="1" parent="A_mBa-yiF6dFhW5c6P_y-1" source="A_mBa-yiF6dFhW5c6P_y-28" target="A_mBa-yiF6dFhW5c6P_y-15">
          <mxGeometry relative="1" as="geometry">
            <Array as="points">
              <mxPoint x="600" y="150" />
            </Array>
          </mxGeometry>
        </mxCell>
        <mxCell id="A_mBa-yiF6dFhW5c6P_y-37" style="edgeStyle=orthogonalEdgeStyle;rounded=0;orthogonalLoop=1;jettySize=auto;html=1;endArrow=classic;endFill=1;" edge="1" parent="A_mBa-yiF6dFhW5c6P_y-1" source="A_mBa-yiF6dFhW5c6P_y-32" target="A_mBa-yiF6dFhW5c6P_y-4">
          <mxGeometry relative="1" as="geometry" />
        </mxCell>
        <mxCell id="A_mBa-yiF6dFhW5c6P_y-38" value="Invoice" style="text;align=center;verticalAlign=middle;dashed=0;fillColor=#ffffff;strokeColor=#000000;" vertex="1" parent="1">
          <mxGeometry x="1264" y="371" width="60" height="40" as="geometry" />
        </mxCell>
        <mxCell id="A_mBa-yiF6dFhW5c6P_y-39" style="rounded=0;orthogonalLoop=1;jettySize=auto;html=1;" edge="1" parent="1" source="A_mBa-yiF6dFhW5c6P_y-27" target="A_mBa-yiF6dFhW5c6P_y-38">
          <mxGeometry relative="1" as="geometry" />
        </mxCell>
        <mxCell id="A_mBa-yiF6dFhW5c6P_y-40" style="edgeStyle=none;rounded=0;orthogonalLoop=1;jettySize=auto;html=1;" edge="1" parent="1" source="A_mBa-yiF6dFhW5c6P_y-38" target="A_mBa-yiF6dFhW5c6P_y-30">
          <mxGeometry relative="1" as="geometry" />
        </mxCell>
      </root>
    </mxGraphModel>
  </diagram>
  <diagram id="R1XB4WcET7i1y6jaPQ1n" name="Sequenzdiagramm">
    <mxGraphModel dx="1687" dy="982" grid="1" gridSize="10" guides="1" tooltips="1" connect="1" arrows="1" fold="1" page="1" pageScale="1" pageWidth="850" pageHeight="1100" math="0" shadow="0">
      <root>
        <mxCell id="0" />
        <mxCell id="1" parent="0" />
        <mxCell id="mY9xduJYjyard6JOHKTq-4" value="Ticket Machine" style="shape=umlLifeline;perimeter=lifelinePerimeter;whiteSpace=wrap;html=1;container=1;dropTarget=0;collapsible=0;recursiveResize=0;outlineConnect=0;portConstraint=eastwest;newEdgeStyle={&quot;edgeStyle&quot;:&quot;elbowEdgeStyle&quot;,&quot;elbow&quot;:&quot;vertical&quot;,&quot;curved&quot;:0,&quot;rounded&quot;:0};" vertex="1" parent="1">
          <mxGeometry x="400" y="300" width="100" height="300" as="geometry" />
        </mxCell>
        <mxCell id="mY9xduJYjyard6JOHKTq-5" value="" style="html=1;points=[];perimeter=orthogonalPerimeter;outlineConnect=0;targetShapes=umlLifeline;portConstraint=eastwest;newEdgeStyle={&quot;edgeStyle&quot;:&quot;elbowEdgeStyle&quot;,&quot;elbow&quot;:&quot;vertical&quot;,&quot;curved&quot;:0,&quot;rounded&quot;:0};" vertex="1" parent="mY9xduJYjyard6JOHKTq-4">
          <mxGeometry x="45" y="90" width="10" height="190" as="geometry" />
        </mxCell>
        <mxCell id="mY9xduJYjyard6JOHKTq-6" value="Banking Service" style="shape=umlLifeline;perimeter=lifelinePerimeter;whiteSpace=wrap;html=1;container=1;dropTarget=0;collapsible=0;recursiveResize=0;outlineConnect=0;portConstraint=eastwest;newEdgeStyle={&quot;edgeStyle&quot;:&quot;elbowEdgeStyle&quot;,&quot;elbow&quot;:&quot;vertical&quot;,&quot;curved&quot;:0,&quot;rounded&quot;:0};" vertex="1" parent="1">
          <mxGeometry x="570" y="300" width="100" height="300" as="geometry" />
        </mxCell>
        <mxCell id="mY9xduJYjyard6JOHKTq-7" value="" style="html=1;points=[];perimeter=orthogonalPerimeter;outlineConnect=0;targetShapes=umlLifeline;portConstraint=eastwest;newEdgeStyle={&quot;edgeStyle&quot;:&quot;elbowEdgeStyle&quot;,&quot;elbow&quot;:&quot;vertical&quot;,&quot;curved&quot;:0,&quot;rounded&quot;:0};" vertex="1" parent="mY9xduJYjyard6JOHKTq-6">
          <mxGeometry x="45" y="90" width="10" height="190" as="geometry" />
        </mxCell>
        <mxCell id="mY9xduJYjyard6JOHKTq-8" value="check credentials" style="endArrow=classicThin;html=1;endSize=12;startArrow=none;startSize=14;startFill=0;edgeStyle=orthogonalEdgeStyle;align=center;verticalAlign=bottom;endFill=1;rounded=0;" edge="1" parent="1">
          <mxGeometry y="3" relative="1" as="geometry">
            <mxPoint x="455" y="471" as="sourcePoint" />
            <mxPoint x="615" y="471" as="targetPoint" />
          </mxGeometry>
        </mxCell>
        <mxCell id="mY9xduJYjyard6JOHKTq-9" value="credentials correct" style="endArrow=none;html=1;endSize=12;startArrow=classicThin;startSize=14;startFill=1;edgeStyle=orthogonalEdgeStyle;align=center;verticalAlign=bottom;endFill=0;rounded=0;" edge="1" parent="1">
          <mxGeometry y="3" relative="1" as="geometry">
            <mxPoint x="455" y="496.5" as="sourcePoint" />
            <mxPoint x="615" y="496.5" as="targetPoint" />
          </mxGeometry>
        </mxCell>
        <mxCell id="mY9xduJYjyard6JOHKTq-10" value="announce payment" style="endArrow=classicThin;html=1;endSize=12;startArrow=none;startSize=14;startFill=0;edgeStyle=orthogonalEdgeStyle;align=center;verticalAlign=bottom;endFill=1;rounded=0;" edge="1" parent="1">
          <mxGeometry y="3" relative="1" as="geometry">
            <mxPoint x="455" y="532" as="sourcePoint" />
            <mxPoint x="615" y="532" as="targetPoint" />
          </mxGeometry>
        </mxCell>
        <mxCell id="mY9xduJYjyard6JOHKTq-11" value="payment announced" style="endArrow=none;html=1;endSize=12;startArrow=classicThin;startSize=14;startFill=1;edgeStyle=orthogonalEdgeStyle;align=center;verticalAlign=bottom;endFill=0;rounded=0;" edge="1" parent="1">
          <mxGeometry y="3" relative="1" as="geometry">
            <mxPoint x="455" y="555" as="sourcePoint" />
            <mxPoint x="615" y="555" as="targetPoint" />
          </mxGeometry>
        </mxCell>
        <mxCell id="mY9xduJYjyard6JOHKTq-12" value="" style="shape=umlLifeline;perimeter=lifelinePerimeter;whiteSpace=wrap;html=1;container=1;dropTarget=0;collapsible=0;recursiveResize=0;outlineConnect=0;portConstraint=eastwest;newEdgeStyle={&quot;edgeStyle&quot;:&quot;elbowEdgeStyle&quot;,&quot;elbow&quot;:&quot;vertical&quot;,&quot;curved&quot;:0,&quot;rounded&quot;:0};participant=umlActor;" vertex="1" parent="1">
          <mxGeometry x="270" y="300" width="20" height="300" as="geometry" />
        </mxCell>
        <mxCell id="mY9xduJYjyard6JOHKTq-13" value="" style="html=1;points=[];perimeter=orthogonalPerimeter;outlineConnect=0;targetShapes=umlLifeline;portConstraint=eastwest;newEdgeStyle={&quot;edgeStyle&quot;:&quot;elbowEdgeStyle&quot;,&quot;elbow&quot;:&quot;vertical&quot;,&quot;curved&quot;:0,&quot;rounded&quot;:0};" vertex="1" parent="mY9xduJYjyard6JOHKTq-12">
          <mxGeometry x="5" y="90" width="10" height="190" as="geometry" />
        </mxCell>
        <mxCell id="mY9xduJYjyard6JOHKTq-14" value="select bank payment&amp;nbsp;" style="endArrow=classicThin;html=1;endSize=12;startArrow=none;startSize=14;startFill=0;edgeStyle=orthogonalEdgeStyle;align=center;verticalAlign=bottom;endFill=1;rounded=0;" edge="1" parent="1">
          <mxGeometry y="3" relative="1" as="geometry">
            <mxPoint x="285" y="410" as="sourcePoint" />
            <mxPoint x="445" y="410" as="targetPoint" />
          </mxGeometry>
        </mxCell>
        <mxCell id="mY9xduJYjyard6JOHKTq-15" value="capture credentials&amp;nbsp;" style="endArrow=none;html=1;endSize=12;startArrow=classicThin;startSize=14;startFill=1;edgeStyle=orthogonalEdgeStyle;align=center;verticalAlign=bottom;endFill=0;rounded=0;" edge="1" parent="1">
          <mxGeometry y="3" relative="1" as="geometry">
            <mxPoint x="285" y="434" as="sourcePoint" />
            <mxPoint x="445" y="434" as="targetPoint" />
          </mxGeometry>
        </mxCell>
        <mxCell id="mY9xduJYjyard6JOHKTq-16" value="enter credentials" style="endArrow=classicThin;html=1;endSize=12;startArrow=none;startSize=14;startFill=0;edgeStyle=orthogonalEdgeStyle;align=center;verticalAlign=bottom;endFill=1;rounded=0;" edge="1" parent="1">
          <mxGeometry y="3" relative="1" as="geometry">
            <mxPoint x="285" y="458" as="sourcePoint" />
            <mxPoint x="445" y="458" as="targetPoint" />
          </mxGeometry>
        </mxCell>
        <mxCell id="mY9xduJYjyard6JOHKTq-17" value="payment finished" style="endArrow=none;html=1;endSize=12;startArrow=classicThin;startSize=14;startFill=1;edgeStyle=orthogonalEdgeStyle;align=center;verticalAlign=bottom;endFill=0;rounded=0;" edge="1" parent="1">
          <mxGeometry y="3" relative="1" as="geometry">
            <mxPoint x="285" y="565" as="sourcePoint" />
            <mxPoint x="445" y="565" as="targetPoint" />
          </mxGeometry>
        </mxCell>
        <mxCell id="BrJBd2tH_HI6Up5gCHKF-1" value="alt" style="shape=umlFrame;whiteSpace=wrap;html=1;fillColor=#f5f5f5;fontColor=#333333;strokeColor=#666666;" vertex="1" parent="1">
          <mxGeometry x="1040" y="300" width="620" height="330" as="geometry" />
        </mxCell>
        <mxCell id="BrJBd2tH_HI6Up5gCHKF-2" value=":Customer" style="shape=umlLifeline;participant=umlActor;perimeter=lifelinePerimeter;html=1;container=1;collapsible=0;recursiveResize=0;verticalAlign=top;spacingTop=36;outlineConnect=0;size=40;fillColor=#f8cecc;strokeColor=#b85450;" vertex="1" parent="1">
          <mxGeometry x="970" y="140" width="20" height="530" as="geometry" />
        </mxCell>
        <mxCell id="BrJBd2tH_HI6Up5gCHKF-3" value="" style="html=1;points=[];perimeter=orthogonalPerimeter;fillColor=#f8cecc;strokeColor=#b85450;" vertex="1" parent="BrJBd2tH_HI6Up5gCHKF-2">
          <mxGeometry x="5" y="70" width="10" height="420" as="geometry" />
        </mxCell>
        <mxCell id="BrJBd2tH_HI6Up5gCHKF-4" value=":SearchForm" style="shape=umlLifeline;perimeter=lifelinePerimeter;whiteSpace=wrap;html=1;container=1;collapsible=0;recursiveResize=0;outlineConnect=0;fillColor=#ffe6cc;strokeColor=#d79b00;" vertex="1" parent="1">
          <mxGeometry x="1110" y="150" width="100" height="520" as="geometry" />
        </mxCell>
        <mxCell id="BrJBd2tH_HI6Up5gCHKF-5" value="" style="html=1;points=[];perimeter=orthogonalPerimeter;fillColor=#ffe6cc;strokeColor=#d79b00;" vertex="1" parent="BrJBd2tH_HI6Up5gCHKF-4">
          <mxGeometry x="45" y="80" width="10" height="380" as="geometry" />
        </mxCell>
        <mxCell id="BrJBd2tH_HI6Up5gCHKF-6" value="" style="html=1;points=[];perimeter=orthogonalPerimeter;fillColor=#ffe6cc;strokeColor=#d79b00;" vertex="1" parent="BrJBd2tH_HI6Up5gCHKF-4">
          <mxGeometry x="50" y="110" width="10" height="40" as="geometry" />
        </mxCell>
        <mxCell id="BrJBd2tH_HI6Up5gCHKF-7" value="1.1: validSearch()" style="edgeStyle=orthogonalEdgeStyle;html=1;align=left;spacingLeft=2;endArrow=block;rounded=0;entryX=1;entryY=0;" edge="1" parent="BrJBd2tH_HI6Up5gCHKF-4" target="BrJBd2tH_HI6Up5gCHKF-6">
          <mxGeometry relative="1" as="geometry">
            <mxPoint x="55" y="100" as="sourcePoint" />
            <Array as="points">
              <mxPoint x="80" y="100" />
              <mxPoint x="80" y="110" />
            </Array>
          </mxGeometry>
        </mxCell>
        <mxCell id="BrJBd2tH_HI6Up5gCHKF-8" value="" style="html=1;points=[];perimeter=orthogonalPerimeter;fillColor=#ffe6cc;strokeColor=#d79b00;" vertex="1" parent="BrJBd2tH_HI6Up5gCHKF-4">
          <mxGeometry x="50" y="380" width="10" height="40" as="geometry" />
        </mxCell>
        <mxCell id="BrJBd2tH_HI6Up5gCHKF-9" value="1.3: displayError()" style="edgeStyle=orthogonalEdgeStyle;html=1;align=left;spacingLeft=2;endArrow=block;rounded=0;entryX=1;entryY=0;" edge="1" parent="BrJBd2tH_HI6Up5gCHKF-4" source="BrJBd2tH_HI6Up5gCHKF-5" target="BrJBd2tH_HI6Up5gCHKF-8">
          <mxGeometry relative="1" as="geometry">
            <mxPoint x="50" y="320" as="sourcePoint" />
            <Array as="points">
              <mxPoint x="80" y="370" />
              <mxPoint x="80" y="380" />
            </Array>
          </mxGeometry>
        </mxCell>
        <mxCell id="BrJBd2tH_HI6Up5gCHKF-10" value="1: itemSearch(itemName)" style="html=1;verticalAlign=bottom;endArrow=block;entryX=0;entryY=0;rounded=0;" edge="1" parent="1" source="BrJBd2tH_HI6Up5gCHKF-3" target="BrJBd2tH_HI6Up5gCHKF-5">
          <mxGeometry relative="1" as="geometry">
            <mxPoint x="1085" y="230" as="sourcePoint" />
          </mxGeometry>
        </mxCell>
        <mxCell id="BrJBd2tH_HI6Up5gCHKF-11" value=":SearchResults" style="shape=umlLifeline;perimeter=lifelinePerimeter;whiteSpace=wrap;html=1;container=1;collapsible=0;recursiveResize=0;outlineConnect=0;fillColor=#dae8fc;strokeColor=#6c8ebf;" vertex="1" parent="1">
          <mxGeometry x="1330" y="150" width="100" height="520" as="geometry" />
        </mxCell>
        <mxCell id="BrJBd2tH_HI6Up5gCHKF-12" value="" style="html=1;points=[];perimeter=orthogonalPerimeter;fillColor=#dae8fc;strokeColor=#6c8ebf;" vertex="1" parent="BrJBd2tH_HI6Up5gCHKF-11">
          <mxGeometry x="45" y="250" width="10" height="20" as="geometry" />
        </mxCell>
        <mxCell id="BrJBd2tH_HI6Up5gCHKF-13" value=":ItemDatabase" style="shape=umlLifeline;participant=umlEntity;perimeter=lifelinePerimeter;whiteSpace=wrap;html=1;container=1;collapsible=0;recursiveResize=0;verticalAlign=top;spacingTop=36;outlineConnect=0;fillColor=#e1d5e7;strokeColor=#9673a6;" vertex="1" parent="1">
          <mxGeometry x="1500" y="150" width="40" height="520" as="geometry" />
        </mxCell>
        <mxCell id="BrJBd2tH_HI6Up5gCHKF-14" value="" style="html=1;points=[];perimeter=orthogonalPerimeter;fillColor=#e1d5e7;strokeColor=#9673a6;" vertex="1" parent="BrJBd2tH_HI6Up5gCHKF-13">
          <mxGeometry x="15" y="180" width="10" height="40" as="geometry" />
        </mxCell>
        <mxCell id="BrJBd2tH_HI6Up5gCHKF-15" value=":ResultList" style="shape=umlLifeline;perimeter=lifelinePerimeter;whiteSpace=wrap;html=1;container=1;collapsible=0;recursiveResize=0;outlineConnect=0;fillColor=#d5e8d4;strokeColor=#82b366;" vertex="1" parent="1">
          <mxGeometry x="1580" y="220" width="100" height="220" as="geometry" />
        </mxCell>
        <mxCell id="BrJBd2tH_HI6Up5gCHKF-16" value="" style="shape=umlDestroy;whiteSpace=wrap;html=1;strokeWidth=3;" vertex="1" parent="BrJBd2tH_HI6Up5gCHKF-15">
          <mxGeometry x="35" y="200" width="30" height="30" as="geometry" />
        </mxCell>
        <mxCell id="BrJBd2tH_HI6Up5gCHKF-17" value="" style="html=1;points=[];perimeter=orthogonalPerimeter;fillColor=#d5e8d4;strokeColor=#82b366;" vertex="1" parent="BrJBd2tH_HI6Up5gCHKF-15">
          <mxGeometry x="45" y="115" width="10" height="65" as="geometry" />
        </mxCell>
        <mxCell id="BrJBd2tH_HI6Up5gCHKF-18" value="1.2: SearchItems(itemName)" style="html=1;verticalAlign=bottom;endArrow=block;entryX=0;entryY=0;rounded=0;" edge="1" parent="1" source="BrJBd2tH_HI6Up5gCHKF-5" target="BrJBd2tH_HI6Up5gCHKF-14">
          <mxGeometry relative="1" as="geometry">
            <mxPoint x="1450" y="260" as="sourcePoint" />
          </mxGeometry>
        </mxCell>
        <mxCell id="BrJBd2tH_HI6Up5gCHKF-19" value="1.2.1: listResults()" style="html=1;verticalAlign=bottom;endArrow=block;entryX=0;entryY=0;rounded=0;" edge="1" parent="1" source="BrJBd2tH_HI6Up5gCHKF-14" target="BrJBd2tH_HI6Up5gCHKF-17">
          <mxGeometry relative="1" as="geometry">
            <mxPoint x="1562" y="345" as="sourcePoint" />
          </mxGeometry>
        </mxCell>
        <mxCell id="BrJBd2tH_HI6Up5gCHKF-20" value="1.2.1.1: displayResults()" style="html=1;verticalAlign=bottom;endArrow=block;entryX=1;entryY=0;rounded=0;" edge="1" parent="1" source="BrJBd2tH_HI6Up5gCHKF-17" target="BrJBd2tH_HI6Up5gCHKF-12">
          <mxGeometry relative="1" as="geometry">
            <mxPoint x="1450" y="380" as="sourcePoint" />
            <Array as="points">
              <mxPoint x="1450" y="400" />
            </Array>
          </mxGeometry>
        </mxCell>
        <mxCell id="BrJBd2tH_HI6Up5gCHKF-21" value="" style="endArrow=none;dashed=1;html=1;rounded=0;entryX=1;entryY=0.576;entryDx=0;entryDy=0;entryPerimeter=0;exitX=0;exitY=0.573;exitDx=0;exitDy=0;exitPerimeter=0;" edge="1" parent="1" source="BrJBd2tH_HI6Up5gCHKF-1" target="BrJBd2tH_HI6Up5gCHKF-1">
          <mxGeometry width="50" height="50" relative="1" as="geometry">
            <mxPoint x="1250" y="440" as="sourcePoint" />
            <mxPoint x="1300" y="390" as="targetPoint" />
          </mxGeometry>
        </mxCell>
        <mxCell id="BrJBd2tH_HI6Up5gCHKF-22" value="[itemName=valid]" style="text;html=1;align=center;verticalAlign=middle;resizable=0;points=[];autosize=1;strokeColor=none;fillColor=none;" vertex="1" parent="1">
          <mxGeometry x="1040" y="330" width="110" height="20" as="geometry" />
        </mxCell>
        <mxCell id="BrJBd2tH_HI6Up5gCHKF-23" value="[else]" style="text;html=1;align=center;verticalAlign=middle;resizable=0;points=[];autosize=1;strokeColor=none;fillColor=none;" vertex="1" parent="1">
          <mxGeometry x="1040" y="490" width="40" height="20" as="geometry" />
        </mxCell>
        <mxCell id="BrJBd2tH_HI6Up5gCHKF-24" style="edgeStyle=none;rounded=0;orthogonalLoop=1;jettySize=auto;html=1;endArrow=open;endFill=0;dashed=1;" edge="1" parent="1" source="BrJBd2tH_HI6Up5gCHKF-5" target="BrJBd2tH_HI6Up5gCHKF-3">
          <mxGeometry relative="1" as="geometry">
            <Array as="points">
              <mxPoint x="1070" y="600" />
            </Array>
          </mxGeometry>
        </mxCell>
        <mxCell id="BrJBd2tH_HI6Up5gCHKF-25" value="sd searchForItems" style="shape=umlFrame;whiteSpace=wrap;html=1;width=120;height=30;boundedLbl=1;verticalAlign=middle;align=left;spacingLeft=5;fillColor=#f5f5f5;fontColor=#333333;strokeColor=#666666;" vertex="1" parent="1">
          <mxGeometry x="880" y="100" width="850" height="590" as="geometry" />
        </mxCell>
      </root>
    </mxGraphModel>
  </diagram>
  <diagram id="raUJSo1VSk0U3yVU2Iy9" name="StateChart">
    <mxGraphModel dx="2284" dy="835" grid="1" gridSize="10" guides="1" tooltips="1" connect="1" arrows="1" fold="1" page="1" pageScale="1" pageWidth="850" pageHeight="1100" math="0" shadow="0">
      <root>
        <mxCell id="0" />
        <mxCell id="1" parent="0" />
        <mxCell id="uT0WVaPuh3q9I350cSA2-1" value="IOT Smart Lock - UML State Diagram" style="shape=umlFrame;whiteSpace=wrap;html=1;width=240;height=20;boundedLbl=1;verticalAlign=middle;align=left;spacingLeft=5;fontColor=#000000;fillColor=default;" vertex="1" parent="1">
          <mxGeometry x="310" y="40" width="1080" height="660" as="geometry" />
        </mxCell>
        <mxCell id="uT0WVaPuh3q9I350cSA2-2" style="rounded=0;orthogonalLoop=1;jettySize=auto;html=1;fontSize=17;fontColor=#666666;endArrow=open;endFill=0;edgeStyle=orthogonalEdgeStyle;strokeWidth=1;" edge="1" parent="1" source="uT0WVaPuh3q9I350cSA2-6" target="uT0WVaPuh3q9I350cSA2-23">
          <mxGeometry relative="1" as="geometry">
            <mxPoint x="624.94" y="599.97" as="targetPoint" />
            <Array as="points">
              <mxPoint x="540" y="575" />
              <mxPoint x="670" y="575" />
            </Array>
          </mxGeometry>
        </mxCell>
        <mxCell id="uT0WVaPuh3q9I350cSA2-3" value="access permitted [valid-key] /unlock" style="edgeLabel;html=1;align=center;verticalAlign=middle;resizable=0;points=[];" vertex="1" connectable="0" parent="uT0WVaPuh3q9I350cSA2-2">
          <mxGeometry x="-0.68" y="-1" relative="1" as="geometry">
            <mxPoint x="71" y="-30" as="offset" />
          </mxGeometry>
        </mxCell>
        <mxCell id="uT0WVaPuh3q9I350cSA2-4" style="rounded=0;orthogonalLoop=1;jettySize=auto;html=1;endArrow=open;endFill=0;edgeStyle=orthogonalEdgeStyle;" edge="1" parent="1" source="uT0WVaPuh3q9I350cSA2-6" target="uT0WVaPuh3q9I350cSA2-15">
          <mxGeometry relative="1" as="geometry">
            <Array as="points">
              <mxPoint x="480" y="495" />
              <mxPoint x="400" y="495" />
              <mxPoint x="400" y="255" />
            </Array>
          </mxGeometry>
        </mxCell>
        <mxCell id="uT0WVaPuh3q9I350cSA2-5" value="invalid key /ignore" style="edgeLabel;html=1;align=center;verticalAlign=middle;resizable=0;points=[];" vertex="1" connectable="0" parent="uT0WVaPuh3q9I350cSA2-4">
          <mxGeometry x="0.3838" relative="1" as="geometry">
            <mxPoint x="34" y="229" as="offset" />
          </mxGeometry>
        </mxCell>
        <UserObject label="Verifying Access, Locked" id="uT0WVaPuh3q9I350cSA2-6">
          <mxCell style="shape=umlState;rounded=1;verticalAlign=top;spacingTop=5;umlStateSymbol=collapseState;absoluteArcSize=1;arcSize=10;" vertex="1" parent="1">
            <mxGeometry x="439.94000000000005" y="414.97" width="140" height="60" as="geometry" />
          </mxCell>
        </UserObject>
        <mxCell id="uT0WVaPuh3q9I350cSA2-7" style="rounded=0;orthogonalLoop=1;jettySize=auto;html=1;fontSize=17;fontColor=#666666;endArrow=open;endFill=0;edgeStyle=orthogonalEdgeStyle;strokeWidth=1;" edge="1" parent="1" source="uT0WVaPuh3q9I350cSA2-15" target="uT0WVaPuh3q9I350cSA2-20">
          <mxGeometry relative="1" as="geometry">
            <Array as="points">
              <mxPoint x="599.94" y="184.97" />
              <mxPoint x="599.94" y="184.97" />
            </Array>
          </mxGeometry>
        </mxCell>
        <mxCell id="uT0WVaPuh3q9I350cSA2-8" value="update request received [valid-update]" style="edgeLabel;html=1;align=center;verticalAlign=middle;resizable=0;points=[];fontColor=#000000;" vertex="1" connectable="0" parent="uT0WVaPuh3q9I350cSA2-7">
          <mxGeometry x="-0.6103" relative="1" as="geometry">
            <mxPoint x="-87" y="4" as="offset" />
          </mxGeometry>
        </mxCell>
        <mxCell id="uT0WVaPuh3q9I350cSA2-9" style="rounded=0;orthogonalLoop=1;jettySize=auto;html=1;fontSize=17;fontColor=#666666;endArrow=open;endFill=0;edgeStyle=orthogonalEdgeStyle;strokeWidth=1;" edge="1" parent="1" source="uT0WVaPuh3q9I350cSA2-15" target="uT0WVaPuh3q9I350cSA2-6">
          <mxGeometry relative="1" as="geometry">
            <Array as="points">
              <mxPoint x="600" y="339.97" />
              <mxPoint x="510" y="339.97" />
            </Array>
          </mxGeometry>
        </mxCell>
        <mxCell id="uT0WVaPuh3q9I350cSA2-10" value="smart key presented [valid RFID code]" style="edgeLabel;html=1;align=center;verticalAlign=middle;resizable=0;points=[];" vertex="1" connectable="0" parent="uT0WVaPuh3q9I350cSA2-9">
          <mxGeometry x="-0.4" y="-1" relative="1" as="geometry">
            <mxPoint x="-69" y="-61" as="offset" />
          </mxGeometry>
        </mxCell>
        <mxCell id="uT0WVaPuh3q9I350cSA2-11" style="rounded=0;orthogonalLoop=1;jettySize=auto;html=1;endArrow=open;endFill=0;edgeStyle=orthogonalEdgeStyle;fillColor=#f8cecc;strokeColor=#b85450;" edge="1" parent="1" source="uT0WVaPuh3q9I350cSA2-15" target="uT0WVaPuh3q9I350cSA2-25">
          <mxGeometry relative="1" as="geometry" />
        </mxCell>
        <mxCell id="uT0WVaPuh3q9I350cSA2-12" value="battery empty" style="edgeLabel;html=1;align=center;verticalAlign=middle;resizable=0;points=[];fontColor=#990000;" vertex="1" connectable="0" parent="uT0WVaPuh3q9I350cSA2-11">
          <mxGeometry x="-0.3083" relative="1" as="geometry">
            <mxPoint x="2" y="-8" as="offset" />
          </mxGeometry>
        </mxCell>
        <mxCell id="uT0WVaPuh3q9I350cSA2-13" style="rounded=0;orthogonalLoop=1;jettySize=auto;html=1;endArrow=open;endFill=0;edgeStyle=orthogonalEdgeStyle;fillColor=#f8cecc;strokeColor=#b85450;" edge="1" parent="1" source="uT0WVaPuh3q9I350cSA2-15" target="uT0WVaPuh3q9I350cSA2-37">
          <mxGeometry relative="1" as="geometry">
            <Array as="points">
              <mxPoint x="680" y="395" />
              <mxPoint x="890" y="395" />
              <mxPoint x="890" y="490" />
            </Array>
          </mxGeometry>
        </mxCell>
        <mxCell id="uT0WVaPuh3q9I350cSA2-14" value="server unresponsive" style="edgeLabel;html=1;align=center;verticalAlign=middle;resizable=0;points=[];fontColor=#990000;" vertex="1" connectable="0" parent="uT0WVaPuh3q9I350cSA2-13">
          <mxGeometry x="-0.6857" y="-1" relative="1" as="geometry">
            <mxPoint x="31" y="-75" as="offset" />
          </mxGeometry>
        </mxCell>
        <UserObject label="Monitoring, Locked" id="uT0WVaPuh3q9I350cSA2-15">
          <mxCell style="shape=umlState;rounded=1;verticalAlign=top;spacingTop=5;umlStateSymbol=collapseState;absoluteArcSize=1;arcSize=10;dashed=0;fontFamily=Helvetica;fontSize=12;fontColor=default;align=center;strokeColor=default;fillColor=default;html=1;" vertex="1" parent="1">
            <mxGeometry x="569.94" y="204.97" width="140" height="60" as="geometry" />
          </mxCell>
        </UserObject>
        <mxCell id="uT0WVaPuh3q9I350cSA2-16" style="rounded=0;orthogonalLoop=1;jettySize=auto;html=1;endArrow=open;endFill=0;edgeStyle=orthogonalEdgeStyle;" edge="1" parent="1" source="uT0WVaPuh3q9I350cSA2-20" target="uT0WVaPuh3q9I350cSA2-15">
          <mxGeometry relative="1" as="geometry">
            <mxPoint x="649.94" y="264.97" as="targetPoint" />
            <Array as="points">
              <mxPoint x="619.94" y="164.97" />
              <mxPoint x="619.94" y="164.97" />
            </Array>
          </mxGeometry>
        </mxCell>
        <mxCell id="uT0WVaPuh3q9I350cSA2-17" value="successful update" style="edgeLabel;html=1;align=center;verticalAlign=middle;resizable=0;points=[];fontColor=#000000;" vertex="1" connectable="0" parent="uT0WVaPuh3q9I350cSA2-16">
          <mxGeometry x="-0.4779" y="1" relative="1" as="geometry">
            <mxPoint x="36" y="-11" as="offset" />
          </mxGeometry>
        </mxCell>
        <mxCell id="uT0WVaPuh3q9I350cSA2-18" style="edgeStyle=orthogonalEdgeStyle;rounded=0;orthogonalLoop=1;jettySize=auto;html=1;endArrow=open;endFill=0;fillColor=#f8cecc;strokeColor=#b85450;" edge="1" parent="1" source="uT0WVaPuh3q9I350cSA2-20" target="uT0WVaPuh3q9I350cSA2-37">
          <mxGeometry relative="1" as="geometry">
            <Array as="points">
              <mxPoint x="960" y="105" />
              <mxPoint x="960" y="490" />
            </Array>
          </mxGeometry>
        </mxCell>
        <mxCell id="uT0WVaPuh3q9I350cSA2-19" value="server unresponsive OR error" style="edgeLabel;html=1;align=center;verticalAlign=middle;resizable=0;points=[];fontColor=#990000;" vertex="1" connectable="0" parent="uT0WVaPuh3q9I350cSA2-18">
          <mxGeometry x="-0.8963" y="1" relative="1" as="geometry">
            <mxPoint x="40" y="-7" as="offset" />
          </mxGeometry>
        </mxCell>
        <mxCell id="uT0WVaPuh3q9I350cSA2-20" value="Updating &lt;br&gt;Internal Records" style="html=1;align=center;verticalAlign=top;rounded=1;absoluteArcSize=1;arcSize=10;fontFamily=Helvetica;fontSize=12;fontColor=default;strokeColor=default;fillColor=default;" vertex="1" parent="1">
          <mxGeometry x="550" y="84.97" width="140" height="40" as="geometry" />
        </mxCell>
        <mxCell id="uT0WVaPuh3q9I350cSA2-21" style="rounded=0;orthogonalLoop=1;jettySize=auto;html=1;fontSize=17;fontColor=#666666;endArrow=open;endFill=0;edgeStyle=orthogonalEdgeStyle;" edge="1" parent="1" source="uT0WVaPuh3q9I350cSA2-22" target="uT0WVaPuh3q9I350cSA2-15">
          <mxGeometry relative="1" as="geometry">
            <Array as="points">
              <mxPoint x="480" y="229.97" />
              <mxPoint x="480" y="229.97" />
            </Array>
          </mxGeometry>
        </mxCell>
        <mxCell id="uT0WVaPuh3q9I350cSA2-22" value="" style="ellipse;fillColor=#000000;strokeColor=none;" vertex="1" parent="1">
          <mxGeometry x="330" y="214.97" width="30" height="30" as="geometry" />
        </mxCell>
        <mxCell id="uT0WVaPuh3q9I350cSA2-23" value="Unlocked" style="html=1;align=center;verticalAlign=top;rounded=1;absoluteArcSize=1;arcSize=10;dashed=0;" vertex="1" parent="1">
          <mxGeometry x="600" y="594.97" width="140" height="40" as="geometry" />
        </mxCell>
        <mxCell id="uT0WVaPuh3q9I350cSA2-24" value="power restored " style="rounded=0;orthogonalLoop=1;jettySize=auto;html=1;endArrow=open;endFill=0;edgeStyle=orthogonalEdgeStyle;fillColor=#f8cecc;strokeColor=#b85450;fontColor=#990000;" edge="1" parent="1" source="uT0WVaPuh3q9I350cSA2-25" target="uT0WVaPuh3q9I350cSA2-37">
          <mxGeometry x="-0.942" relative="1" as="geometry">
            <Array as="points">
              <mxPoint x="890" y="490" />
            </Array>
            <mxPoint y="-1" as="offset" />
          </mxGeometry>
        </mxCell>
        <mxCell id="uT0WVaPuh3q9I350cSA2-25" value="Power Lost, Locked" style="html=1;align=center;verticalAlign=top;rounded=1;absoluteArcSize=1;arcSize=10;dashed=0;fillColor=none;strokeColor=#b85450;fontColor=#990000;" vertex="1" parent="1">
          <mxGeometry x="809.94" y="214.97" width="140" height="40" as="geometry" />
        </mxCell>
        <mxCell id="uT0WVaPuh3q9I350cSA2-26" style="rounded=0;orthogonalLoop=1;jettySize=auto;html=1;fontSize=17;fontColor=#666666;endArrow=open;endFill=0;edgeStyle=orthogonalEdgeStyle;fillColor=#f8cecc;strokeColor=#b85450;" edge="1" parent="1" source="uT0WVaPuh3q9I350cSA2-6" target="uT0WVaPuh3q9I350cSA2-37">
          <mxGeometry relative="1" as="geometry">
            <Array as="points">
              <mxPoint x="890" y="455" />
              <mxPoint x="890" y="490" />
            </Array>
          </mxGeometry>
        </mxCell>
        <mxCell id="uT0WVaPuh3q9I350cSA2-27" value="server unresponsive" style="edgeLabel;html=1;align=center;verticalAlign=middle;resizable=0;points=[];fontColor=#990000;" vertex="1" connectable="0" parent="uT0WVaPuh3q9I350cSA2-26">
          <mxGeometry x="-0.7273" relative="1" as="geometry">
            <mxPoint x="-10" y="-9" as="offset" />
          </mxGeometry>
        </mxCell>
        <mxCell id="uT0WVaPuh3q9I350cSA2-28" value="server connected" style="rounded=0;orthogonalLoop=1;jettySize=auto;html=1;endArrow=open;endFill=0;exitX=1;exitY=0.5;exitDx=0;exitDy=0;edgeStyle=orthogonalEdgeStyle;" edge="1" parent="1" source="uT0WVaPuh3q9I350cSA2-30" target="uT0WVaPuh3q9I350cSA2-15">
          <mxGeometry x="-0.8597" y="10" relative="1" as="geometry">
            <Array as="points">
              <mxPoint x="1330" y="494.97" />
              <mxPoint x="1330" y="174.97" />
              <mxPoint x="670" y="174.97" />
            </Array>
            <mxPoint as="offset" />
          </mxGeometry>
        </mxCell>
        <mxCell id="uT0WVaPuh3q9I350cSA2-29" value="" style="group;fillColor=none;strokeColor=none;" vertex="1" connectable="0" parent="1">
          <mxGeometry x="994.94" y="364.97" width="275" height="260" as="geometry" />
        </mxCell>
        <UserObject label="Reconnecting, Locked" id="uT0WVaPuh3q9I350cSA2-30">
          <mxCell style="shape=umlState;rounded=1;verticalAlign=top;spacingTop=5;umlStateSymbol=collapseState;absoluteArcSize=1;arcSize=10;container=1;fillColor=none;strokeColor=#b85450;fontColor=#990000;" vertex="1" parent="uT0WVaPuh3q9I350cSA2-29">
            <mxGeometry x="15.566037735849056" width="259.4339622641509" height="260" as="geometry" />
          </mxCell>
        </UserObject>
        <UserObject label="Reconnecting" id="uT0WVaPuh3q9I350cSA2-31">
          <mxCell style="shape=umlState;rounded=1;verticalAlign=top;spacingTop=5;umlStateSymbol=collapseState;absoluteArcSize=1;arcSize=10;dashed=0;fontFamily=Helvetica;fontSize=12;align=center;strokeColor=#b85450;fillColor=none;html=1;fontColor=#990000;" vertex="1" parent="uT0WVaPuh3q9I350cSA2-30">
            <mxGeometry x="46.7" y="50" width="94.59" height="52.14" as="geometry" />
          </mxCell>
        </UserObject>
        <UserObject label="Monitoring, &lt;br&gt;&lt;div&gt;Verifying Access &lt;br&gt;&lt;/div&gt;&lt;div&gt;Using&lt;br&gt;&lt;/div&gt;Internal Records" id="uT0WVaPuh3q9I350cSA2-32">
          <mxCell style="shape=umlState;rounded=1;verticalAlign=top;spacingTop=5;umlStateSymbol=collapseState;absoluteArcSize=1;arcSize=10;dashed=0;fontFamily=Helvetica;fontSize=12;fontColor=#000000;align=center;strokeColor=default;fillColor=default;html=1;" vertex="1" parent="uT0WVaPuh3q9I350cSA2-30">
            <mxGeometry x="46.7" y="140" width="93.3" height="90" as="geometry" />
          </mxCell>
        </UserObject>
        <mxCell id="uT0WVaPuh3q9I350cSA2-33" value="invalid key /ignore" style="rounded=0;orthogonalLoop=1;jettySize=auto;html=1;endArrow=open;endFill=0;edgeStyle=orthogonalEdgeStyle;fontColor=#000000;strokeColor=#000000;" edge="1" parent="uT0WVaPuh3q9I350cSA2-30">
          <mxGeometry x="-0.3813" y="9" relative="1" as="geometry">
            <mxPoint x="140.00000000000045" y="164.02999999999997" as="sourcePoint" />
            <mxPoint x="140.00000000000045" y="194.02999999999997" as="targetPoint" />
            <Array as="points">
              <mxPoint x="205" y="164" />
              <mxPoint x="205" y="194" />
            </Array>
            <mxPoint as="offset" />
          </mxGeometry>
        </mxCell>
        <mxCell id="uT0WVaPuh3q9I350cSA2-34" style="rounded=0;orthogonalLoop=1;jettySize=auto;html=1;endArrow=open;endFill=0;fontColor=#990000;fillColor=#f8cecc;strokeColor=#b85450;" edge="1" parent="uT0WVaPuh3q9I350cSA2-29" source="uT0WVaPuh3q9I350cSA2-37" target="uT0WVaPuh3q9I350cSA2-31">
          <mxGeometry relative="1" as="geometry" />
        </mxCell>
        <mxCell id="uT0WVaPuh3q9I350cSA2-35" style="rounded=0;orthogonalLoop=1;jettySize=auto;html=1;endArrow=open;endFill=0;fontColor=#990000;" edge="1" parent="uT0WVaPuh3q9I350cSA2-29" source="uT0WVaPuh3q9I350cSA2-37" target="uT0WVaPuh3q9I350cSA2-32">
          <mxGeometry relative="1" as="geometry" />
        </mxCell>
        <mxCell id="uT0WVaPuh3q9I350cSA2-36" style="edgeStyle=orthogonalEdgeStyle;rounded=0;orthogonalLoop=1;jettySize=auto;html=1;exitX=1;exitY=0.5;exitDx=0;exitDy=0;entryX=1;entryY=0.5;entryDx=0;entryDy=0;endArrow=none;endFill=0;dashed=1;fontColor=#990000;fillColor=#f8cecc;strokeColor=#b85450;" edge="1" parent="uT0WVaPuh3q9I350cSA2-29" source="uT0WVaPuh3q9I350cSA2-30" target="uT0WVaPuh3q9I350cSA2-37">
          <mxGeometry relative="1" as="geometry">
            <Array as="points">
              <mxPoint x="145" y="130" />
              <mxPoint x="145" y="130" />
            </Array>
          </mxGeometry>
        </mxCell>
        <mxCell id="uT0WVaPuh3q9I350cSA2-37" value="" style="ellipse;fillColor=default;strokeColor=#b85450;" vertex="1" parent="uT0WVaPuh3q9I350cSA2-29">
          <mxGeometry y="116.07142857142857" width="31.132075471698112" height="27.857142857142858" as="geometry" />
        </mxCell>
        <mxCell id="uT0WVaPuh3q9I350cSA2-38" value="" style="ellipse;html=1;shape=endState;fillColor=#000000;strokeColor=#000000;fontColor=#990000;" vertex="1" parent="uT0WVaPuh3q9I350cSA2-29">
          <mxGeometry x="233.48924528301885" y="62.14" width="31.132075471698112" height="27.857142857142858" as="geometry" />
        </mxCell>
        <mxCell id="uT0WVaPuh3q9I350cSA2-39" style="rounded=0;orthogonalLoop=1;jettySize=auto;html=1;endArrow=open;endFill=0;edgeStyle=orthogonalEdgeStyle;fontColor=#990000;" edge="1" parent="uT0WVaPuh3q9I350cSA2-29" source="uT0WVaPuh3q9I350cSA2-31" target="uT0WVaPuh3q9I350cSA2-38">
          <mxGeometry relative="1" as="geometry" />
        </mxCell>
        <mxCell id="uT0WVaPuh3q9I350cSA2-40" value="connected" style="edgeLabel;html=1;align=center;verticalAlign=middle;resizable=0;points=[];fontColor=#000000;" vertex="1" connectable="0" parent="uT0WVaPuh3q9I350cSA2-39">
          <mxGeometry x="-0.5727" y="-2" relative="1" as="geometry">
            <mxPoint x="12" y="-10" as="offset" />
          </mxGeometry>
        </mxCell>
        <mxCell id="uT0WVaPuh3q9I350cSA2-41" value="5 seconds unlocked&lt;br&gt;[server unresponsive] /lock" style="rounded=0;orthogonalLoop=1;jettySize=auto;html=1;endArrow=open;endFill=0;edgeStyle=orthogonalEdgeStyle;fillColor=#f8cecc;strokeColor=#b85450;fontColor=#990000;labelBackgroundColor=default;" edge="1" parent="1" source="uT0WVaPuh3q9I350cSA2-23" target="uT0WVaPuh3q9I350cSA2-37">
          <mxGeometry x="-0.6296" y="18" relative="1" as="geometry">
            <mxPoint x="759.94" y="617.97" as="sourcePoint" />
            <mxPoint x="994.9400295560549" y="497.9428571428572" as="targetPoint" />
            <Array as="points">
              <mxPoint x="890" y="618" />
              <mxPoint x="890" y="500" />
            </Array>
            <mxPoint as="offset" />
          </mxGeometry>
        </mxCell>
        <mxCell id="uT0WVaPuh3q9I350cSA2-42" style="rounded=0;orthogonalLoop=1;jettySize=auto;html=1;endArrow=open;endFill=0;edgeStyle=orthogonalEdgeStyle;exitX=0.5;exitY=1;exitDx=0;exitDy=0;strokeWidth=1;" edge="1" parent="1" source="uT0WVaPuh3q9I350cSA2-23" target="uT0WVaPuh3q9I350cSA2-15">
          <mxGeometry relative="1" as="geometry">
            <mxPoint x="769.94" y="614.97" as="sourcePoint" />
            <Array as="points">
              <mxPoint x="670" y="670" />
              <mxPoint x="400" y="670" />
              <mxPoint x="400" y="255" />
            </Array>
          </mxGeometry>
        </mxCell>
        <mxCell id="uT0WVaPuh3q9I350cSA2-43" value="5 seconds unlocked &lt;br&gt;&lt;div&gt;[server connected] /lock&lt;br&gt;&lt;/div&gt;" style="edgeLabel;html=1;align=center;verticalAlign=middle;resizable=0;points=[];" vertex="1" connectable="0" parent="uT0WVaPuh3q9I350cSA2-42">
          <mxGeometry x="-0.8982" y="-2" relative="1" as="geometry">
            <mxPoint x="10" y="-18" as="offset" />
          </mxGeometry>
        </mxCell>
        <mxCell id="uT0WVaPuh3q9I350cSA2-44" style="edgeStyle=orthogonalEdgeStyle;rounded=0;orthogonalLoop=1;jettySize=auto;html=1;endArrow=open;endFill=0;" edge="1" parent="1" source="uT0WVaPuh3q9I350cSA2-32" target="uT0WVaPuh3q9I350cSA2-23">
          <mxGeometry relative="1" as="geometry">
            <mxPoint x="624.94" y="599.97" as="targetPoint" />
            <Array as="points">
              <mxPoint x="670" y="575" />
            </Array>
          </mxGeometry>
        </mxCell>
        <mxCell id="uT0WVaPuh3q9I350cSA2-45" value="access permitted [valid-key] /unlock" style="edgeLabel;html=1;align=center;verticalAlign=middle;resizable=0;points=[];fontColor=#000000;" vertex="1" connectable="0" parent="uT0WVaPuh3q9I350cSA2-44">
          <mxGeometry x="0.3406" y="1" relative="1" as="geometry">
            <mxPoint x="176" y="-10" as="offset" />
          </mxGeometry>
        </mxCell>
        <mxCell id="uT0WVaPuh3q9I350cSA2-46" style="edgeStyle=none;rounded=0;orthogonalLoop=1;jettySize=auto;html=1;entryX=1;entryY=0.5;entryDx=0;entryDy=0;endArrow=open;endFill=0;" edge="1" parent="1" source="uT0WVaPuh3q9I350cSA2-23" target="uT0WVaPuh3q9I350cSA2-23">
          <mxGeometry relative="1" as="geometry" />
        </mxCell>
        <mxCell id="1XIEt9JMQfqqK_kjChtJ-1" value="Ticketkauf" style="shape=umlFrame;whiteSpace=wrap;html=1;width=240;height=20;boundedLbl=1;verticalAlign=middle;align=left;spacingLeft=5;fillColor=#dae8fc;strokeColor=#6c8ebf;" vertex="1" parent="1">
          <mxGeometry x="-360" y="49.97" width="620" height="630.03" as="geometry" />
        </mxCell>
        <mxCell id="1XIEt9JMQfqqK_kjChtJ-4" value="" style="edgeStyle=orthogonalEdgeStyle;rounded=0;orthogonalLoop=1;jettySize=auto;html=1;" edge="1" parent="1" source="1XIEt9JMQfqqK_kjChtJ-2" target="1XIEt9JMQfqqK_kjChtJ-3">
          <mxGeometry relative="1" as="geometry" />
        </mxCell>
        <mxCell id="1XIEt9JMQfqqK_kjChtJ-2" value="" style="ellipse;fillColor=#000000;strokeColor=none;" vertex="1" parent="1">
          <mxGeometry x="-230" y="95" width="30" height="30" as="geometry" />
        </mxCell>
        <mxCell id="1XIEt9JMQfqqK_kjChtJ-3" value="Start Screen" style="html=1;align=center;verticalAlign=top;rounded=1;absoluteArcSize=1;arcSize=10;fontFamily=Helvetica;fontSize=12;fontColor=default;strokeColor=default;fillColor=default;" vertex="1" parent="1">
          <mxGeometry x="-120" y="90" width="140" height="40" as="geometry" />
        </mxCell>
        <mxCell id="1XIEt9JMQfqqK_kjChtJ-7" value="touched /" style="edgeLabel;html=1;align=center;verticalAlign=middle;resizable=0;points=[];fontColor=#000000;" vertex="1" connectable="0" parent="1">
          <mxGeometry x="-89.99999999999989" y="140.00000000000003" as="geometry">
            <mxPoint x="72" y="8" as="offset" />
          </mxGeometry>
        </mxCell>
        <mxCell id="1XIEt9JMQfqqK_kjChtJ-16" value="" style="edgeStyle=orthogonalEdgeStyle;rounded=0;orthogonalLoop=1;jettySize=auto;html=1;endArrow=none;endFill=0;startArrow=classic;startFill=1;" edge="1" parent="1" source="1XIEt9JMQfqqK_kjChtJ-9" target="1XIEt9JMQfqqK_kjChtJ-3">
          <mxGeometry relative="1" as="geometry" />
        </mxCell>
        <mxCell id="1XIEt9JMQfqqK_kjChtJ-18" style="edgeStyle=orthogonalEdgeStyle;rounded=0;orthogonalLoop=1;jettySize=auto;html=1;exitX=0.5;exitY=1;exitDx=0;exitDy=0;entryX=0.5;entryY=0;entryDx=0;entryDy=0;" edge="1" parent="1" source="1XIEt9JMQfqqK_kjChtJ-9" target="1XIEt9JMQfqqK_kjChtJ-17">
          <mxGeometry relative="1" as="geometry" />
        </mxCell>
        <mxCell id="1XIEt9JMQfqqK_kjChtJ-9" value="Show Menu" style="swimlane;fontStyle=4;align=center;verticalAlign=top;childLayout=stackLayout;horizontal=1;startSize=29;horizontalStack=0;resizeParent=1;resizeParentMax=0;resizeLast=0;collapsible=0;marginBottom=0;html=1;rounded=1;absoluteArcSize=1;arcSize=50;whiteSpace=wrap;" vertex="1" parent="1">
          <mxGeometry x="-120" y="171" width="140" height="60" as="geometry" />
        </mxCell>
        <mxCell id="1XIEt9JMQfqqK_kjChtJ-51" style="edgeStyle=orthogonalEdgeStyle;rounded=0;orthogonalLoop=1;jettySize=auto;html=1;exitX=0.5;exitY=1;exitDx=0;exitDy=0;" edge="1" parent="1" source="1XIEt9JMQfqqK_kjChtJ-17" target="1XIEt9JMQfqqK_kjChtJ-50">
          <mxGeometry relative="1" as="geometry" />
        </mxCell>
        <mxCell id="1XIEt9JMQfqqK_kjChtJ-17" value="SelectPayment" style="swimlane;fontStyle=4;align=center;verticalAlign=top;childLayout=stackLayout;horizontal=1;startSize=25;horizontalStack=0;resizeParent=1;resizeParentMax=0;resizeLast=0;collapsible=0;marginBottom=0;html=1;rounded=1;absoluteArcSize=1;arcSize=50;whiteSpace=wrap;container=0;fillColor=#ffe6cc;strokeColor=#d79b00;" vertex="1" parent="1">
          <mxGeometry x="-310" y="264.97" width="480" height="275.03" as="geometry" />
        </mxCell>
        <mxCell id="1XIEt9JMQfqqK_kjChtJ-19" value="ticketSelected /" style="edgeLabel;html=1;align=center;verticalAlign=middle;resizable=0;points=[];fontColor=#000000;" vertex="1" connectable="0" parent="1">
          <mxGeometry x="-78.99999999999989" y="237.97000000000003" as="geometry">
            <mxPoint x="72" y="8" as="offset" />
          </mxGeometry>
        </mxCell>
        <mxCell id="1XIEt9JMQfqqK_kjChtJ-22" value="" style="edgeStyle=orthogonalEdgeStyle;rounded=0;orthogonalLoop=1;jettySize=auto;html=1;" edge="1" parent="1" source="1XIEt9JMQfqqK_kjChtJ-20" target="1XIEt9JMQfqqK_kjChtJ-21">
          <mxGeometry relative="1" as="geometry" />
        </mxCell>
        <mxCell id="1XIEt9JMQfqqK_kjChtJ-20" value="" style="ellipse;fillColor=#000000;strokeColor=none;" vertex="1" parent="1">
          <mxGeometry x="-220" y="307.52" width="30" height="30" as="geometry" />
        </mxCell>
        <mxCell id="1XIEt9JMQfqqK_kjChtJ-25" value="" style="edgeStyle=orthogonalEdgeStyle;rounded=0;orthogonalLoop=1;jettySize=auto;html=1;" edge="1" parent="1" source="1XIEt9JMQfqqK_kjChtJ-21" target="1XIEt9JMQfqqK_kjChtJ-24">
          <mxGeometry relative="1" as="geometry" />
        </mxCell>
        <mxCell id="1XIEt9JMQfqqK_kjChtJ-21" value="Show Payment&lt;br&gt;Options" style="html=1;align=center;verticalAlign=top;rounded=1;absoluteArcSize=1;arcSize=10;fontFamily=Helvetica;fontSize=12;fontColor=default;strokeColor=default;fillColor=default;" vertex="1" parent="1">
          <mxGeometry x="-122" y="300" width="100" height="45.03" as="geometry" />
        </mxCell>
        <mxCell id="1XIEt9JMQfqqK_kjChtJ-29" style="edgeStyle=orthogonalEdgeStyle;rounded=0;orthogonalLoop=1;jettySize=auto;html=1;exitX=0.5;exitY=1;exitDx=0;exitDy=0;entryX=0.5;entryY=0;entryDx=0;entryDy=0;" edge="1" parent="1" source="1XIEt9JMQfqqK_kjChtJ-24" target="1XIEt9JMQfqqK_kjChtJ-27">
          <mxGeometry relative="1" as="geometry" />
        </mxCell>
        <mxCell id="1XIEt9JMQfqqK_kjChtJ-30" style="edgeStyle=orthogonalEdgeStyle;rounded=0;orthogonalLoop=1;jettySize=auto;html=1;exitX=1;exitY=0.5;exitDx=0;exitDy=0;" edge="1" parent="1" source="1XIEt9JMQfqqK_kjChtJ-24" target="1XIEt9JMQfqqK_kjChtJ-28">
          <mxGeometry relative="1" as="geometry" />
        </mxCell>
        <mxCell id="1XIEt9JMQfqqK_kjChtJ-31" style="edgeStyle=orthogonalEdgeStyle;rounded=0;orthogonalLoop=1;jettySize=auto;html=1;exitX=0;exitY=0.5;exitDx=0;exitDy=0;" edge="1" parent="1" source="1XIEt9JMQfqqK_kjChtJ-24" target="1XIEt9JMQfqqK_kjChtJ-26">
          <mxGeometry relative="1" as="geometry" />
        </mxCell>
        <mxCell id="1XIEt9JMQfqqK_kjChtJ-24" value="" style="rhombus;" vertex="1" parent="1">
          <mxGeometry x="-87" y="364.97" width="30" height="30" as="geometry" />
        </mxCell>
        <mxCell id="1XIEt9JMQfqqK_kjChtJ-46" value="" style="edgeStyle=orthogonalEdgeStyle;rounded=0;orthogonalLoop=1;jettySize=auto;html=1;exitX=0.5;exitY=1;exitDx=0;exitDy=0;entryX=0;entryY=0.5;entryDx=0;entryDy=0;" edge="1" parent="1" source="1XIEt9JMQfqqK_kjChtJ-26" target="1XIEt9JMQfqqK_kjChtJ-45">
          <mxGeometry relative="1" as="geometry" />
        </mxCell>
        <mxCell id="1XIEt9JMQfqqK_kjChtJ-26" value="BankPayment" style="swimlane;fontStyle=4;align=center;verticalAlign=top;childLayout=stackLayout;horizontal=1;startSize=29;horizontalStack=0;resizeParent=1;resizeParentMax=0;resizeLast=0;collapsible=0;marginBottom=0;html=1;rounded=1;absoluteArcSize=1;arcSize=50;whiteSpace=wrap;" vertex="1" parent="1">
          <mxGeometry x="-292" y="424.97" width="140" height="60" as="geometry" />
        </mxCell>
        <mxCell id="1XIEt9JMQfqqK_kjChtJ-49" value="" style="edgeStyle=orthogonalEdgeStyle;rounded=0;orthogonalLoop=1;jettySize=auto;html=1;" edge="1" parent="1" source="1XIEt9JMQfqqK_kjChtJ-27" target="1XIEt9JMQfqqK_kjChtJ-45">
          <mxGeometry relative="1" as="geometry" />
        </mxCell>
        <mxCell id="1XIEt9JMQfqqK_kjChtJ-27" value="CreditCardPayment" style="swimlane;fontStyle=4;align=center;verticalAlign=top;childLayout=stackLayout;horizontal=1;startSize=29;horizontalStack=0;resizeParent=1;resizeParentMax=0;resizeLast=0;collapsible=0;marginBottom=0;html=1;rounded=1;absoluteArcSize=1;arcSize=50;whiteSpace=wrap;" vertex="1" parent="1">
          <mxGeometry x="-142" y="424.97" width="140" height="60" as="geometry" />
        </mxCell>
        <mxCell id="1XIEt9JMQfqqK_kjChtJ-48" value="" style="edgeStyle=orthogonalEdgeStyle;rounded=0;orthogonalLoop=1;jettySize=auto;html=1;entryX=1;entryY=0.5;entryDx=0;entryDy=0;" edge="1" parent="1" source="1XIEt9JMQfqqK_kjChtJ-28" target="1XIEt9JMQfqqK_kjChtJ-45">
          <mxGeometry relative="1" as="geometry">
            <Array as="points">
              <mxPoint x="80" y="513" />
            </Array>
          </mxGeometry>
        </mxCell>
        <mxCell id="1XIEt9JMQfqqK_kjChtJ-28" value="Cash" style="swimlane;fontStyle=4;align=center;verticalAlign=top;childLayout=stackLayout;horizontal=1;startSize=29;horizontalStack=0;resizeParent=1;resizeParentMax=0;resizeLast=0;collapsible=0;marginBottom=0;html=1;rounded=1;absoluteArcSize=1;arcSize=50;whiteSpace=wrap;" vertex="1" parent="1">
          <mxGeometry x="8" y="424.97" width="140" height="60" as="geometry" />
        </mxCell>
        <mxCell id="1XIEt9JMQfqqK_kjChtJ-45" value="" style="ellipse;html=1;shape=endState;fillColor=#000000;strokeColor=#000000;fontColor=#990000;" vertex="1" parent="1">
          <mxGeometry x="-87.13075471698119" y="505" width="31.132075471698112" height="27.857142857142858" as="geometry" />
        </mxCell>
        <mxCell id="1XIEt9JMQfqqK_kjChtJ-52" style="edgeStyle=orthogonalEdgeStyle;rounded=0;orthogonalLoop=1;jettySize=auto;html=1;exitX=1;exitY=0.5;exitDx=0;exitDy=0;entryX=1;entryY=0.5;entryDx=0;entryDy=0;" edge="1" parent="1" source="1XIEt9JMQfqqK_kjChtJ-50" target="1XIEt9JMQfqqK_kjChtJ-3">
          <mxGeometry relative="1" as="geometry">
            <Array as="points">
              <mxPoint x="220" y="605" />
              <mxPoint x="220" y="110" />
            </Array>
          </mxGeometry>
        </mxCell>
        <mxCell id="1XIEt9JMQfqqK_kjChtJ-50" value="PrintTicket" style="swimlane;fontStyle=4;align=center;verticalAlign=top;childLayout=stackLayout;horizontal=1;startSize=29;horizontalStack=0;resizeParent=1;resizeParentMax=0;resizeLast=0;collapsible=0;marginBottom=0;html=1;rounded=1;absoluteArcSize=1;arcSize=50;whiteSpace=wrap;" vertex="1" parent="1">
          <mxGeometry x="-140" y="574.97" width="140" height="60" as="geometry" />
        </mxCell>
        <mxCell id="1XIEt9JMQfqqK_kjChtJ-53" value="/ bookingFinalized" style="edgeLabel;html=1;align=center;verticalAlign=middle;resizable=0;points=[];fontColor=#000000;" vertex="1" connectable="0" parent="1">
          <mxGeometry x="90.00000000000011" y="580" as="geometry">
            <mxPoint x="72" y="8" as="offset" />
          </mxGeometry>
        </mxCell>
      </root>
    </mxGraphModel>
  </diagram>
  <diagram id="GJ3jcSTFuUHfLzneEwcU" name="Component">
    <mxGraphModel dx="1434" dy="835" grid="1" gridSize="10" guides="1" tooltips="1" connect="1" arrows="1" fold="1" page="1" pageScale="1" pageWidth="850" pageHeight="1100" math="0" shadow="0">
      <root>
        <mxCell id="0" />
        <mxCell id="1" parent="0" />
        <mxCell id="6RfdaKWAuKgkJLpvG025-1" value="«component»&lt;br&gt;&lt;b&gt;:OnlineStore&lt;/b&gt;" style="html=1;dropTarget=0;whiteSpace=wrap;fontSize=16;labelPosition=left;verticalLabelPosition=top;align=right;verticalAlign=bottom;spacingLeft=0;spacingRight=-120;spacingTop=0;spacingBottom=-50;" vertex="1" parent="1">
          <mxGeometry x="110" y="70" width="450" height="280" as="geometry" />
        </mxCell>
        <mxCell id="6RfdaKWAuKgkJLpvG025-2" value="" style="shape=module;jettyWidth=8;jettyHeight=4;fontSize=16;" vertex="1" parent="6RfdaKWAuKgkJLpvG025-1">
          <mxGeometry x="1" width="20" height="20" relative="1" as="geometry">
            <mxPoint x="-27" y="7" as="offset" />
          </mxGeometry>
        </mxCell>
        <mxCell id="6RfdaKWAuKgkJLpvG025-3" style="edgeStyle=orthogonalEdgeStyle;rounded=0;orthogonalLoop=1;jettySize=auto;html=1;labelBackgroundColor=none;endArrow=none;endFill=0;" edge="1" parent="1" source="6RfdaKWAuKgkJLpvG025-12" target="6RfdaKWAuKgkJLpvG025-23">
          <mxGeometry relative="1" as="geometry">
            <Array as="points">
              <mxPoint x="154" y="143" />
            </Array>
          </mxGeometry>
        </mxCell>
        <mxCell id="6RfdaKWAuKgkJLpvG025-4" value="&amp;lt;&amp;lt;delegate&amp;gt;&amp;gt;" style="edgeLabel;html=1;align=center;verticalAlign=bottom;resizable=0;points=[];fontSize=8;labelPosition=center;verticalLabelPosition=top;" vertex="1" connectable="0" parent="6RfdaKWAuKgkJLpvG025-3">
          <mxGeometry x="-0.0526" y="1" relative="1" as="geometry">
            <mxPoint y="-5" as="offset" />
          </mxGeometry>
        </mxCell>
        <mxCell id="6RfdaKWAuKgkJLpvG025-5" value="«component»&lt;br style=&quot;font-size: 12px;&quot;&gt;&lt;b style=&quot;font-size: 12px;&quot;&gt;:Account&lt;/b&gt;" style="html=1;dropTarget=0;whiteSpace=wrap;fontSize=12;" vertex="1" parent="1">
          <mxGeometry x="685" y="190" width="140" height="60" as="geometry" />
        </mxCell>
        <mxCell id="6RfdaKWAuKgkJLpvG025-6" value="" style="shape=module;jettyWidth=8;jettyHeight=4;fontSize=16;" vertex="1" parent="6RfdaKWAuKgkJLpvG025-5">
          <mxGeometry x="1" width="20" height="20" relative="1" as="geometry">
            <mxPoint x="-27" y="7" as="offset" />
          </mxGeometry>
        </mxCell>
        <mxCell id="6RfdaKWAuKgkJLpvG025-7" value="" style="html=1;rounded=0;" vertex="1" parent="1">
          <mxGeometry x="670" y="217.5" width="15" height="15" as="geometry" />
        </mxCell>
        <mxCell id="6RfdaKWAuKgkJLpvG025-8" value="" style="endArrow=none;html=1;rounded=0;align=center;verticalAlign=top;endFill=0;labelBackgroundColor=none;endSize=2;fontSize=9;" edge="1" parent="1" source="6RfdaKWAuKgkJLpvG025-7" target="6RfdaKWAuKgkJLpvG025-39">
          <mxGeometry relative="1" as="geometry">
            <mxPoint x="630" y="110" as="targetPoint" />
          </mxGeometry>
        </mxCell>
        <mxCell id="6RfdaKWAuKgkJLpvG025-9" value="" style="html=1;rounded=0;" vertex="1" parent="1">
          <mxGeometry x="329" y="151.5" width="15" height="15" as="geometry" />
        </mxCell>
        <mxCell id="6RfdaKWAuKgkJLpvG025-10" value="" style="html=1;rounded=0;" vertex="1" parent="1">
          <mxGeometry x="175" y="152.5" width="15" height="15" as="geometry" />
        </mxCell>
        <mxCell id="6RfdaKWAuKgkJLpvG025-11" value="" style="endArrow=none;html=1;rounded=0;align=center;verticalAlign=top;endFill=0;labelBackgroundColor=none;endSize=2;" edge="1" parent="1" source="6RfdaKWAuKgkJLpvG025-10" target="6RfdaKWAuKgkJLpvG025-12">
          <mxGeometry relative="1" as="geometry" />
        </mxCell>
        <mxCell id="6RfdaKWAuKgkJLpvG025-12" value="OrderSubmission" style="ellipse;html=1;fontSize=9;align=center;fillColor=none;points=[];aspect=fixed;resizable=0;verticalAlign=top;labelPosition=center;verticalLabelPosition=bottom;flipH=1;strokeColor=#000000;" vertex="1" parent="1">
          <mxGeometry x="150" y="156" width="8" height="8" as="geometry" />
        </mxCell>
        <mxCell id="6RfdaKWAuKgkJLpvG025-13" value="" style="html=1;rounded=0;aspect=fixed;" vertex="1" parent="1">
          <mxGeometry x="252.5" y="190" width="15" height="15" as="geometry" />
        </mxCell>
        <mxCell id="6RfdaKWAuKgkJLpvG025-14" value="" style="html=1;rounded=0;" vertex="1" parent="1">
          <mxGeometry x="380" y="151.5" width="15" height="15" as="geometry" />
        </mxCell>
        <mxCell id="6RfdaKWAuKgkJLpvG025-15" value="" style="html=1;rounded=0;aspect=fixed;" vertex="1" parent="1">
          <mxGeometry x="460" y="188" width="15" height="15" as="geometry" />
        </mxCell>
        <mxCell id="6RfdaKWAuKgkJLpvG025-16" value="" style="html=1;rounded=0;" vertex="1" parent="1">
          <mxGeometry x="252.5" y="255" width="15" height="15" as="geometry" />
        </mxCell>
        <mxCell id="6RfdaKWAuKgkJLpvG025-17" value="" style="rounded=0;orthogonalLoop=1;jettySize=auto;html=1;endArrow=halfCircle;endFill=0;endSize=6;strokeWidth=1;sketch=0;fontSize=12;curved=1;exitX=1;exitY=0.5;exitDx=0;exitDy=0;" edge="1" parent="1" source="6RfdaKWAuKgkJLpvG025-9" target="6RfdaKWAuKgkJLpvG025-32">
          <mxGeometry relative="1" as="geometry">
            <mxPoint x="510" y="255" as="sourcePoint" />
          </mxGeometry>
        </mxCell>
        <mxCell id="6RfdaKWAuKgkJLpvG025-18" value="" style="rounded=0;orthogonalLoop=1;jettySize=auto;html=1;endArrow=oval;endFill=0;sketch=0;sourcePerimeterSpacing=0;targetPerimeterSpacing=0;endSize=10;fontSize=12;curved=1;exitX=0;exitY=0.5;exitDx=0;exitDy=0;" edge="1" parent="1" source="6RfdaKWAuKgkJLpvG025-14" target="6RfdaKWAuKgkJLpvG025-32">
          <mxGeometry relative="1" as="geometry">
            <mxPoint x="470" y="255" as="sourcePoint" />
          </mxGeometry>
        </mxCell>
        <mxCell id="6RfdaKWAuKgkJLpvG025-19" value="" style="rounded=0;orthogonalLoop=1;jettySize=auto;html=1;endArrow=halfCircle;endFill=0;endSize=6;strokeWidth=1;sketch=0;fontSize=12;curved=1;exitX=0.5;exitY=1;exitDx=0;exitDy=0;" edge="1" parent="1" source="6RfdaKWAuKgkJLpvG025-13" target="6RfdaKWAuKgkJLpvG025-33">
          <mxGeometry relative="1" as="geometry">
            <mxPoint x="510" y="255" as="sourcePoint" />
          </mxGeometry>
        </mxCell>
        <mxCell id="6RfdaKWAuKgkJLpvG025-20" value="" style="rounded=0;orthogonalLoop=1;jettySize=auto;html=1;endArrow=oval;endFill=0;sketch=0;sourcePerimeterSpacing=0;targetPerimeterSpacing=0;endSize=10;fontSize=12;curved=1;exitX=0.5;exitY=0;exitDx=0;exitDy=0;" edge="1" parent="1" source="6RfdaKWAuKgkJLpvG025-16" target="6RfdaKWAuKgkJLpvG025-33">
          <mxGeometry relative="1" as="geometry">
            <mxPoint x="470" y="255" as="sourcePoint" />
          </mxGeometry>
        </mxCell>
        <mxCell id="6RfdaKWAuKgkJLpvG025-21" value="" style="rounded=0;orthogonalLoop=1;jettySize=auto;html=1;endArrow=halfCircle;endFill=0;endSize=6;strokeWidth=1;sketch=0;fontSize=12;curved=1;exitX=0.5;exitY=1;exitDx=0;exitDy=0;" edge="1" parent="1" source="6RfdaKWAuKgkJLpvG025-15" target="6RfdaKWAuKgkJLpvG025-34">
          <mxGeometry relative="1" as="geometry">
            <mxPoint x="505" y="255" as="sourcePoint" />
          </mxGeometry>
        </mxCell>
        <mxCell id="6RfdaKWAuKgkJLpvG025-22" value="" style="html=1;rounded=0;aspect=fixed;" vertex="1" parent="1">
          <mxGeometry x="560" y="233" width="15" height="15" as="geometry" />
        </mxCell>
        <mxCell id="6RfdaKWAuKgkJLpvG025-23" value="" style="html=1;rounded=0;" vertex="1" parent="1">
          <mxGeometry x="95" y="135.5" width="15" height="15" as="geometry" />
        </mxCell>
        <mxCell id="6RfdaKWAuKgkJLpvG025-24" value="" style="endArrow=none;html=1;rounded=0;align=center;verticalAlign=top;endFill=0;labelBackgroundColor=none;endSize=2;" edge="1" parent="1" source="6RfdaKWAuKgkJLpvG025-23" target="6RfdaKWAuKgkJLpvG025-25">
          <mxGeometry relative="1" as="geometry" />
        </mxCell>
        <mxCell id="6RfdaKWAuKgkJLpvG025-25" value="OrderSubmission" style="ellipse;html=1;fontSize=9;align=center;fillColor=none;points=[];aspect=fixed;resizable=0;verticalAlign=top;labelPosition=center;verticalLabelPosition=bottom;flipH=1;strokeColor=#000000;" vertex="1" parent="1">
          <mxGeometry x="39" y="139" width="8" height="8" as="geometry" />
        </mxCell>
        <mxCell id="6RfdaKWAuKgkJLpvG025-26" value="«component»&lt;br style=&quot;font-size: 12px;&quot;&gt;&lt;b style=&quot;font-size: 12px;&quot;&gt;:Product&lt;/b&gt;" style="html=1;dropTarget=0;whiteSpace=wrap;fontSize=12;" vertex="1" parent="1">
          <mxGeometry x="189" y="270" width="140" height="60" as="geometry" />
        </mxCell>
        <mxCell id="6RfdaKWAuKgkJLpvG025-27" value="" style="shape=module;jettyWidth=8;jettyHeight=4;fontSize=16;" vertex="1" parent="6RfdaKWAuKgkJLpvG025-26">
          <mxGeometry x="1" width="20" height="20" relative="1" as="geometry">
            <mxPoint x="-27" y="7" as="offset" />
          </mxGeometry>
        </mxCell>
        <mxCell id="6RfdaKWAuKgkJLpvG025-28" value="«component»&lt;br style=&quot;font-size: 12px;&quot;&gt;&lt;b style=&quot;font-size: 12px;&quot;&gt;:Customer&lt;/b&gt;" style="html=1;dropTarget=0;whiteSpace=wrap;fontSize=12;" vertex="1" parent="1">
          <mxGeometry x="395" y="128" width="140" height="60" as="geometry" />
        </mxCell>
        <mxCell id="6RfdaKWAuKgkJLpvG025-29" value="" style="shape=module;jettyWidth=8;jettyHeight=4;fontSize=16;" vertex="1" parent="6RfdaKWAuKgkJLpvG025-28">
          <mxGeometry x="1" width="20" height="20" relative="1" as="geometry">
            <mxPoint x="-27" y="7" as="offset" />
          </mxGeometry>
        </mxCell>
        <mxCell id="6RfdaKWAuKgkJLpvG025-30" value="«component»&lt;br style=&quot;font-size: 12px;&quot;&gt;&lt;b style=&quot;font-size: 12px;&quot;&gt;:Order&lt;/b&gt;" style="html=1;dropTarget=0;whiteSpace=wrap;fontSize=12;" vertex="1" parent="1">
          <mxGeometry x="189" y="130" width="140" height="60" as="geometry" />
        </mxCell>
        <mxCell id="6RfdaKWAuKgkJLpvG025-31" value="" style="shape=module;jettyWidth=8;jettyHeight=4;fontSize=16;" vertex="1" parent="6RfdaKWAuKgkJLpvG025-30">
          <mxGeometry x="1" width="20" height="20" relative="1" as="geometry">
            <mxPoint x="-27" y="7" as="offset" />
          </mxGeometry>
        </mxCell>
        <mxCell id="6RfdaKWAuKgkJLpvG025-32" value="Person" style="ellipse;whiteSpace=wrap;html=1;align=center;aspect=fixed;fillColor=none;strokeColor=none;resizable=0;perimeter=centerPerimeter;rotatable=0;allowArrows=0;points=[];outlineConnect=1;fontSize=9;labelPosition=center;verticalLabelPosition=top;verticalAlign=bottom;" vertex="1" parent="1">
          <mxGeometry x="360" y="154" width="10" height="10" as="geometry" />
        </mxCell>
        <mxCell id="6RfdaKWAuKgkJLpvG025-33" value="OrderableProduct" style="ellipse;whiteSpace=wrap;html=1;align=left;aspect=fixed;fillColor=none;strokeColor=none;resizable=0;perimeter=centerPerimeter;rotatable=0;allowArrows=0;points=[];outlineConnect=1;fontSize=9;labelPosition=right;verticalLabelPosition=middle;verticalAlign=middle;" vertex="1" parent="1">
          <mxGeometry x="255" y="225.5" width="10" height="10" as="geometry" />
        </mxCell>
        <mxCell id="6RfdaKWAuKgkJLpvG025-34" value="Account" style="ellipse;whiteSpace=wrap;html=1;align=right;aspect=fixed;fillColor=none;strokeColor=none;resizable=0;perimeter=centerPerimeter;rotatable=0;allowArrows=0;points=[];outlineConnect=1;fontSize=9;labelPosition=left;verticalLabelPosition=middle;verticalAlign=middle;" vertex="1" parent="1">
          <mxGeometry x="462.5" y="220" width="10" height="10" as="geometry" />
        </mxCell>
        <mxCell id="6RfdaKWAuKgkJLpvG025-35" value="&lt;span style=&quot;caret-color: rgb(0, 0, 0); color: rgb(0, 0, 0); font-family: Helvetica; font-size: 8px; font-style: normal; font-variant-caps: normal; font-weight: 400; letter-spacing: normal; text-align: center; text-indent: 0px; text-transform: none; word-spacing: 0px; -webkit-text-stroke-width: 0px; background-color: rgb(255, 255, 255); text-decoration: none; float: none; display: inline !important;&quot;&gt;&amp;lt;&amp;lt;delegate&amp;gt;&amp;gt;&lt;/span&gt;" style="edgeStyle=orthogonalEdgeStyle;rounded=0;orthogonalLoop=1;jettySize=auto;html=1;labelBackgroundColor=none;endArrow=none;endFill=0;exitX=0.45;exitY=1;exitDx=0;exitDy=0;exitPerimeter=0;" edge="1" parent="1" source="6RfdaKWAuKgkJLpvG025-34" target="6RfdaKWAuKgkJLpvG025-22">
          <mxGeometry x="0.0798" y="10" relative="1" as="geometry">
            <mxPoint x="680" y="180" as="targetPoint" />
            <Array as="points">
              <mxPoint x="468" y="240" />
            </Array>
            <mxPoint x="470" y="500" as="sourcePoint" />
            <mxPoint x="1" as="offset" />
          </mxGeometry>
        </mxCell>
        <mxCell id="6RfdaKWAuKgkJLpvG025-36" value="" style="rounded=0;orthogonalLoop=1;jettySize=auto;html=1;endArrow=halfCircle;endFill=0;endSize=6;strokeWidth=1;sketch=0;fontSize=12;curved=1;exitX=1;exitY=0.5;exitDx=0;exitDy=0;" edge="1" parent="1" source="6RfdaKWAuKgkJLpvG025-22">
          <mxGeometry relative="1" as="geometry">
            <mxPoint x="505" y="255" as="sourcePoint" />
            <mxPoint x="600" y="240" as="targetPoint" />
          </mxGeometry>
        </mxCell>
        <mxCell id="6RfdaKWAuKgkJLpvG025-37" value="" style="ellipse;whiteSpace=wrap;html=1;align=center;aspect=fixed;fillColor=none;strokeColor=none;resizable=0;perimeter=centerPerimeter;rotatable=0;allowArrows=0;points=[];outlineConnect=1;fontSize=16;" vertex="1" parent="1">
          <mxGeometry x="480" y="250" width="10" height="10" as="geometry" />
        </mxCell>
        <mxCell id="6RfdaKWAuKgkJLpvG025-38" style="edgeStyle=none;curved=1;rounded=0;orthogonalLoop=1;jettySize=auto;html=1;fontSize=12;startSize=8;endSize=8;endArrow=none;endFill=0;dashed=1;" edge="1" parent="1" target="6RfdaKWAuKgkJLpvG025-39">
          <mxGeometry relative="1" as="geometry">
            <mxPoint x="600" y="240" as="sourcePoint" />
          </mxGeometry>
        </mxCell>
        <mxCell id="6RfdaKWAuKgkJLpvG025-39" value="" style="ellipse;html=1;fontSize=11;align=center;fillColor=none;points=[];aspect=fixed;resizable=0;verticalAlign=bottom;labelPosition=center;verticalLabelPosition=top;flipH=1;" vertex="1" parent="1">
          <mxGeometry x="630" y="221" width="8" height="8" as="geometry" />
        </mxCell>
        <mxCell id="6RfdaKWAuKgkJLpvG025-40" value="" style="ellipse;whiteSpace=wrap;html=1;align=center;aspect=fixed;fillColor=none;strokeColor=none;resizable=0;perimeter=centerPerimeter;rotatable=0;allowArrows=0;points=[];outlineConnect=1;fontSize=16;" vertex="1" parent="1">
          <mxGeometry x="480" y="250" width="10" height="10" as="geometry" />
        </mxCell>
        <mxCell id="6RfdaKWAuKgkJLpvG025-41" value="«service»&lt;br&gt;&lt;b&gt;TicketSales&lt;/b&gt;" style="html=1;dropTarget=0;whiteSpace=wrap;" vertex="1" parent="1">
          <mxGeometry x="110" y="540" width="180" height="90" as="geometry" />
        </mxCell>
        <mxCell id="6RfdaKWAuKgkJLpvG025-42" value="" style="shape=module;jettyWidth=8;jettyHeight=4;" vertex="1" parent="6RfdaKWAuKgkJLpvG025-41">
          <mxGeometry x="1" width="20" height="20" relative="1" as="geometry">
            <mxPoint x="-27" y="7" as="offset" />
          </mxGeometry>
        </mxCell>
        <mxCell id="6RfdaKWAuKgkJLpvG025-43" value="" style="rounded=0;orthogonalLoop=1;jettySize=auto;html=1;endArrow=none;endFill=0;sketch=0;sourcePerimeterSpacing=0;targetPerimeterSpacing=0;exitX=1;exitY=0.5;exitDx=0;exitDy=0;" edge="1" parent="1" source="6RfdaKWAuKgkJLpvG025-41" target="6RfdaKWAuKgkJLpvG025-45">
          <mxGeometry relative="1" as="geometry">
            <mxPoint x="236" y="580.0000000000001" as="sourcePoint" />
          </mxGeometry>
        </mxCell>
        <mxCell id="6RfdaKWAuKgkJLpvG025-44" value="" style="rounded=0;orthogonalLoop=1;jettySize=auto;html=1;endArrow=halfCircle;endFill=0;entryX=0.5;entryY=0.5;endSize=6;strokeWidth=1;sketch=0;exitX=0;exitY=0.5;exitDx=0;exitDy=0;" edge="1" parent="1" source="6RfdaKWAuKgkJLpvG025-46" target="6RfdaKWAuKgkJLpvG025-45">
          <mxGeometry relative="1" as="geometry">
            <mxPoint x="456" y="580.0000000000001" as="sourcePoint" />
          </mxGeometry>
        </mxCell>
        <mxCell id="6RfdaKWAuKgkJLpvG025-45" value="" style="ellipse;whiteSpace=wrap;html=1;align=center;aspect=fixed;resizable=0;points=[];outlineConnect=0;sketch=0;" vertex="1" parent="1">
          <mxGeometry x="346" y="580" width="10" height="10" as="geometry" />
        </mxCell>
        <mxCell id="6RfdaKWAuKgkJLpvG025-46" value="«service»&lt;br&gt;&lt;b&gt;CustomerData&lt;/b&gt;" style="html=1;dropTarget=0;whiteSpace=wrap;" vertex="1" parent="1">
          <mxGeometry x="419" y="540" width="180" height="90" as="geometry" />
        </mxCell>
        <mxCell id="6RfdaKWAuKgkJLpvG025-47" value="" style="shape=module;jettyWidth=8;jettyHeight=4;" vertex="1" parent="6RfdaKWAuKgkJLpvG025-46">
          <mxGeometry x="1" width="20" height="20" relative="1" as="geometry">
            <mxPoint x="-27" y="7" as="offset" />
          </mxGeometry>
        </mxCell>
        <mxCell id="6RfdaKWAuKgkJLpvG025-48" value="«component»&lt;br style=&quot;border-color: var(--border-color);&quot;&gt;&lt;b style=&quot;border-color: var(--border-color);&quot;&gt;UserInterface&lt;/b&gt;" style="html=1;dropTarget=0;whiteSpace=wrap;" vertex="1" parent="1">
          <mxGeometry x="110" y="690" width="180" height="90" as="geometry" />
        </mxCell>
        <mxCell id="6RfdaKWAuKgkJLpvG025-49" value="" style="shape=module;jettyWidth=8;jettyHeight=4;" vertex="1" parent="6RfdaKWAuKgkJLpvG025-48">
          <mxGeometry x="1" width="20" height="20" relative="1" as="geometry">
            <mxPoint x="-27" y="7" as="offset" />
          </mxGeometry>
        </mxCell>
        <mxCell id="6RfdaKWAuKgkJLpvG025-50" value="" style="rounded=0;orthogonalLoop=1;jettySize=auto;html=1;endArrow=none;endFill=0;sketch=0;sourcePerimeterSpacing=0;targetPerimeterSpacing=0;" edge="1" parent="1" source="6RfdaKWAuKgkJLpvG025-41" target="6RfdaKWAuKgkJLpvG025-52">
          <mxGeometry relative="1" as="geometry">
            <mxPoint x="180" y="655" as="sourcePoint" />
          </mxGeometry>
        </mxCell>
        <mxCell id="6RfdaKWAuKgkJLpvG025-51" value="" style="rounded=0;orthogonalLoop=1;jettySize=auto;html=1;endArrow=halfCircle;endFill=0;entryX=0.5;entryY=0.5;endSize=6;strokeWidth=1;sketch=0;exitX=0.5;exitY=0;exitDx=0;exitDy=0;" edge="1" parent="1" source="6RfdaKWAuKgkJLpvG025-48" target="6RfdaKWAuKgkJLpvG025-52">
          <mxGeometry relative="1" as="geometry">
            <mxPoint x="220" y="655" as="sourcePoint" />
          </mxGeometry>
        </mxCell>
        <mxCell id="6RfdaKWAuKgkJLpvG025-52" value="" style="ellipse;whiteSpace=wrap;html=1;align=center;aspect=fixed;resizable=0;points=[];outlineConnect=0;sketch=0;" vertex="1" parent="1">
          <mxGeometry x="195" y="650" width="10" height="10" as="geometry" />
        </mxCell>
      </root>
    </mxGraphModel>
  </diagram>
</mxfile>
